G04 #@! TF.GenerationSoftware,KiCad,Pcbnew,(5.0.1)-4*
G04 #@! TF.CreationDate,2019-02-11T11:38:27+01:00*
G04 #@! TF.ProjectId,MyWallSwitch,4D7957616C6C5377697463682E6B6963,1*
G04 #@! TF.SameCoordinates,Original*
G04 #@! TF.FileFunction,Copper,L1,Top,Signal*
G04 #@! TF.FilePolarity,Positive*
%FSLAX46Y46*%
G04 Gerber Fmt 4.6, Leading zero omitted, Abs format (unit mm)*
G04 Created by KiCad (PCBNEW (5.0.1)-4) date 11.02.2019 11:38:27*
%MOMM*%
%LPD*%
G01*
G04 APERTURE LIST*
G04 #@! TA.AperFunction,SMDPad,CuDef*
%ADD10R,1.600000X1.600000*%
G04 #@! TD*
G04 #@! TA.AperFunction,ComponentPad*
%ADD11C,3.000000*%
G04 #@! TD*
G04 #@! TA.AperFunction,ComponentPad*
%ADD12R,3.000000X3.000000*%
G04 #@! TD*
G04 #@! TA.AperFunction,ComponentPad*
%ADD13C,2.350000*%
G04 #@! TD*
G04 #@! TA.AperFunction,SMDPad,CuDef*
%ADD14R,2.000000X1.000000*%
G04 #@! TD*
G04 #@! TA.AperFunction,SMDPad,CuDef*
%ADD15R,0.550000X1.600000*%
G04 #@! TD*
G04 #@! TA.AperFunction,SMDPad,CuDef*
%ADD16R,1.600000X0.550000*%
G04 #@! TD*
G04 #@! TA.AperFunction,SMDPad,CuDef*
%ADD17R,0.700000X4.100000*%
G04 #@! TD*
G04 #@! TA.AperFunction,SMDPad,CuDef*
%ADD18R,1.000000X4.100000*%
G04 #@! TD*
G04 #@! TA.AperFunction,ComponentPad*
%ADD19O,1.700000X1.700000*%
G04 #@! TD*
G04 #@! TA.AperFunction,ComponentPad*
%ADD20R,1.700000X1.700000*%
G04 #@! TD*
G04 #@! TA.AperFunction,SMDPad,CuDef*
%ADD21R,0.900000X1.200000*%
G04 #@! TD*
G04 #@! TA.AperFunction,ComponentPad*
%ADD22C,1.524000*%
G04 #@! TD*
G04 #@! TA.AperFunction,ComponentPad*
%ADD23C,1.600000*%
G04 #@! TD*
G04 #@! TA.AperFunction,SMDPad,CuDef*
%ADD24R,1.000000X3.150000*%
G04 #@! TD*
G04 #@! TA.AperFunction,SMDPad,CuDef*
%ADD25R,0.750000X1.200000*%
G04 #@! TD*
G04 #@! TA.AperFunction,SMDPad,CuDef*
%ADD26R,1.200000X0.750000*%
G04 #@! TD*
G04 #@! TA.AperFunction,SMDPad,CuDef*
%ADD27R,2.000000X1.600000*%
G04 #@! TD*
G04 #@! TA.AperFunction,ViaPad*
%ADD28C,0.800000*%
G04 #@! TD*
G04 #@! TA.AperFunction,Conductor*
%ADD29C,0.250000*%
G04 #@! TD*
G04 #@! TA.AperFunction,Conductor*
%ADD30C,0.500000*%
G04 #@! TD*
G04 APERTURE END LIST*
D10*
G04 #@! TO.P,U3,8*
G04 #@! TO.N,L_OUT*
X153035000Y-82550000D03*
G04 #@! TO.P,U3,4*
G04 #@! TO.N,GND*
X145415000Y-90170000D03*
G04 #@! TO.P,U3,7*
G04 #@! TO.N,N/C*
X153035000Y-85090000D03*
G04 #@! TO.P,U3,3*
G04 #@! TO.N,GND*
X145415000Y-87630000D03*
G04 #@! TO.P,U3,6*
G04 #@! TO.N,L_IN*
X153035000Y-87630000D03*
G04 #@! TO.P,U3,2*
G04 #@! TO.N,Net-(R1-Pad2)*
X145415000Y-85090000D03*
G04 #@! TO.P,U3,5*
G04 #@! TO.N,N/C*
X153035000Y-90170000D03*
G04 #@! TO.P,U3,1*
G04 #@! TO.N,GND*
X145415000Y-82550000D03*
G04 #@! TD*
D11*
G04 #@! TO.P,J1,4*
G04 #@! TO.N,L_OUT*
X131445000Y-76835000D03*
D12*
G04 #@! TO.P,J1,1*
G04 #@! TO.N,Net-(F1-Pad1)*
X146685000Y-76835000D03*
D11*
G04 #@! TO.P,J1,3*
G04 #@! TO.N,Net-(J1-Pad2)*
X136525000Y-76835000D03*
G04 #@! TO.P,J1,2*
X141605000Y-76835000D03*
G04 #@! TD*
D13*
G04 #@! TO.P,F1,2*
G04 #@! TO.N,L_IN*
X149860000Y-98980000D03*
X149860000Y-93900000D03*
G04 #@! TO.P,F1,1*
G04 #@! TO.N,Net-(F1-Pad1)*
X149860000Y-109220000D03*
X149860000Y-114300000D03*
G04 #@! TO.P,F1,2*
G04 #@! TO.N,L_IN*
X152400000Y-96440000D03*
X147320000Y-96440000D03*
G04 #@! TO.P,F1,1*
G04 #@! TO.N,Net-(F1-Pad1)*
X152400000Y-111760000D03*
X147320000Y-111760000D03*
G04 #@! TD*
D14*
G04 #@! TO.P,U4,2*
G04 #@! TO.N,VCC*
X142685000Y-96475000D03*
G04 #@! TO.P,U4,1*
G04 #@! TO.N,GND*
X142685000Y-95205000D03*
G04 #@! TO.P,U4,3*
G04 #@! TO.N,Net-(U2-Pad13)*
X142685000Y-93935000D03*
G04 #@! TO.P,U4,4*
G04 #@! TO.N,Net-(U2-Pad14)*
X142685000Y-92665000D03*
G04 #@! TO.P,U4,5*
G04 #@! TO.N,Net-(J3-Pad3)*
X142685000Y-91395000D03*
G04 #@! TO.P,U4,6*
G04 #@! TO.N,Net-(J3-Pad4)*
X142685000Y-90125000D03*
G04 #@! TO.P,U4,7*
G04 #@! TO.N,Net-(J3-Pad1)*
X142685000Y-88855000D03*
G04 #@! TO.P,U4,8*
G04 #@! TO.N,N/C*
X142685000Y-87585000D03*
G04 #@! TD*
D15*
G04 #@! TO.P,U2,32*
G04 #@! TO.N,Net-(C3-Pad2)*
X139960000Y-113470000D03*
G04 #@! TO.P,U2,31*
G04 #@! TO.N,Net-(J2-Pad3)*
X139160000Y-113470000D03*
G04 #@! TO.P,U2,30*
G04 #@! TO.N,Net-(J2-Pad2)*
X138360000Y-113470000D03*
G04 #@! TO.P,U2,29*
G04 #@! TO.N,Net-(C4-Pad2)*
X137560000Y-113470000D03*
G04 #@! TO.P,U2,28*
G04 #@! TO.N,GND*
X136760000Y-113470000D03*
G04 #@! TO.P,U2,27*
X135960000Y-113470000D03*
G04 #@! TO.P,U2,26*
X135160000Y-113470000D03*
G04 #@! TO.P,U2,25*
X134360000Y-113470000D03*
D16*
G04 #@! TO.P,U2,24*
X132910000Y-112020000D03*
G04 #@! TO.P,U2,23*
X132910000Y-111220000D03*
G04 #@! TO.P,U2,22*
X132910000Y-110420000D03*
G04 #@! TO.P,U2,21*
X132910000Y-109620000D03*
G04 #@! TO.P,U2,20*
G04 #@! TO.N,Net-(C1-Pad1)*
X132910000Y-108820000D03*
G04 #@! TO.P,U2,19*
G04 #@! TO.N,GND*
X132910000Y-108020000D03*
G04 #@! TO.P,U2,18*
G04 #@! TO.N,VCC*
X132910000Y-107220000D03*
G04 #@! TO.P,U2,17*
G04 #@! TO.N,Net-(J3-Pad3)*
X132910000Y-106420000D03*
D15*
G04 #@! TO.P,U2,16*
G04 #@! TO.N,Net-(J3-Pad1)*
X134360000Y-104970000D03*
G04 #@! TO.P,U2,15*
G04 #@! TO.N,Net-(J3-Pad4)*
X135160000Y-104970000D03*
G04 #@! TO.P,U2,14*
G04 #@! TO.N,Net-(U2-Pad14)*
X135960000Y-104970000D03*
G04 #@! TO.P,U2,13*
G04 #@! TO.N,Net-(U2-Pad13)*
X136760000Y-104970000D03*
G04 #@! TO.P,U2,12*
G04 #@! TO.N,VCC*
X137560000Y-104970000D03*
G04 #@! TO.P,U2,11*
G04 #@! TO.N,GND*
X138360000Y-104970000D03*
G04 #@! TO.P,U2,10*
G04 #@! TO.N,Net-(R1-Pad1)*
X139160000Y-104970000D03*
G04 #@! TO.P,U2,9*
G04 #@! TO.N,GND*
X139960000Y-104970000D03*
D16*
G04 #@! TO.P,U2,8*
G04 #@! TO.N,Net-(U2-Pad8)*
X141410000Y-106420000D03*
G04 #@! TO.P,U2,7*
G04 #@! TO.N,Net-(U2-Pad7)*
X141410000Y-107220000D03*
G04 #@! TO.P,U2,6*
G04 #@! TO.N,VCC*
X141410000Y-108020000D03*
G04 #@! TO.P,U2,5*
G04 #@! TO.N,GND*
X141410000Y-108820000D03*
G04 #@! TO.P,U2,4*
G04 #@! TO.N,VCC*
X141410000Y-109620000D03*
G04 #@! TO.P,U2,3*
G04 #@! TO.N,GND*
X141410000Y-110420000D03*
G04 #@! TO.P,U2,2*
X141410000Y-111220000D03*
G04 #@! TO.P,U2,1*
X141410000Y-112020000D03*
G04 #@! TD*
D17*
G04 #@! TO.P,Y1,1*
G04 #@! TO.N,Net-(U2-Pad8)*
X131040000Y-116840000D03*
D18*
G04 #@! TO.P,Y1,2*
G04 #@! TO.N,N/C*
X129540000Y-116840000D03*
D17*
G04 #@! TO.P,Y1,3*
G04 #@! TO.N,Net-(U2-Pad7)*
X128040000Y-116840000D03*
G04 #@! TD*
D19*
G04 #@! TO.P,J2,6*
G04 #@! TO.N,GND*
X146050000Y-118110000D03*
G04 #@! TO.P,J2,5*
X143510000Y-118110000D03*
G04 #@! TO.P,J2,4*
G04 #@! TO.N,VCC*
X140970000Y-118110000D03*
G04 #@! TO.P,J2,3*
G04 #@! TO.N,Net-(J2-Pad3)*
X138430000Y-118110000D03*
G04 #@! TO.P,J2,2*
G04 #@! TO.N,Net-(J2-Pad2)*
X135890000Y-118110000D03*
D20*
G04 #@! TO.P,J2,1*
G04 #@! TO.N,Net-(C4-Pad1)*
X133350000Y-118110000D03*
G04 #@! TD*
D21*
G04 #@! TO.P,R1,1*
G04 #@! TO.N,Net-(R1-Pad1)*
X143510000Y-98595000D03*
G04 #@! TO.P,R1,2*
G04 #@! TO.N,Net-(R1-Pad2)*
X143510000Y-100795000D03*
G04 #@! TD*
G04 #@! TO.P,R2,2*
G04 #@! TO.N,Net-(C4-Pad2)*
X143510000Y-109390000D03*
G04 #@! TO.P,R2,1*
G04 #@! TO.N,VCC*
X143510000Y-111590000D03*
G04 #@! TD*
D22*
G04 #@! TO.P,U1,1*
G04 #@! TO.N,Net-(F1-Pad1)*
X132715000Y-83820000D03*
G04 #@! TO.P,U1,2*
G04 #@! TO.N,Net-(J1-Pad2)*
X137160000Y-83820000D03*
G04 #@! TO.P,U1,3*
G04 #@! TO.N,GND*
X127000000Y-113030000D03*
G04 #@! TO.P,U1,4*
G04 #@! TO.N,VCC*
X142240000Y-113030000D03*
G04 #@! TD*
D23*
G04 #@! TO.P,RV1,2*
G04 #@! TO.N,Net-(J1-Pad2)*
X152955000Y-105670000D03*
G04 #@! TO.P,RV1,1*
G04 #@! TO.N,Net-(F1-Pad1)*
X147955000Y-102870000D03*
G04 #@! TD*
D24*
G04 #@! TO.P,J3,1*
G04 #@! TO.N,Net-(J3-Pad1)*
X125730000Y-105395000D03*
G04 #@! TO.P,J3,2*
G04 #@! TO.N,VCC*
X125730000Y-100345000D03*
G04 #@! TO.P,J3,3*
G04 #@! TO.N,Net-(J3-Pad3)*
X128270000Y-105395000D03*
G04 #@! TO.P,J3,4*
G04 #@! TO.N,Net-(J3-Pad4)*
X128270000Y-100345000D03*
G04 #@! TO.P,J3,5*
G04 #@! TO.N,Net-(C5-Pad1)*
X130810000Y-105395000D03*
G04 #@! TO.P,J3,6*
G04 #@! TO.N,GND*
X130810000Y-100345000D03*
G04 #@! TD*
D25*
G04 #@! TO.P,C1,1*
G04 #@! TO.N,Net-(C1-Pad1)*
X141605000Y-103820000D03*
G04 #@! TO.P,C1,2*
G04 #@! TO.N,GND*
X141605000Y-101920000D03*
G04 #@! TD*
D26*
G04 #@! TO.P,C3,2*
G04 #@! TO.N,Net-(C3-Pad2)*
X130490000Y-108585000D03*
G04 #@! TO.P,C3,1*
G04 #@! TO.N,GND*
X128590000Y-108585000D03*
G04 #@! TD*
D25*
G04 #@! TO.P,C6,2*
G04 #@! TO.N,GND*
X126365000Y-110170000D03*
G04 #@! TO.P,C6,1*
G04 #@! TO.N,VCC*
X126365000Y-108270000D03*
G04 #@! TD*
D26*
G04 #@! TO.P,C4,1*
G04 #@! TO.N,Net-(C4-Pad1)*
X133035000Y-116205000D03*
G04 #@! TO.P,C4,2*
G04 #@! TO.N,Net-(C4-Pad2)*
X134935000Y-116205000D03*
G04 #@! TD*
G04 #@! TO.P,C2,2*
G04 #@! TO.N,GND*
X130490000Y-110490000D03*
G04 #@! TO.P,C2,1*
G04 #@! TO.N,VCC*
X128590000Y-110490000D03*
G04 #@! TD*
D25*
G04 #@! TO.P,C5,1*
G04 #@! TO.N,Net-(C5-Pad1)*
X143510000Y-105730000D03*
G04 #@! TO.P,C5,2*
G04 #@! TO.N,Net-(C4-Pad2)*
X143510000Y-107630000D03*
G04 #@! TD*
D27*
G04 #@! TO.P,SW1,2*
G04 #@! TO.N,GND*
X139225000Y-100330000D03*
G04 #@! TO.P,SW1,1*
G04 #@! TO.N,Net-(C3-Pad2)*
X133825000Y-100330000D03*
G04 #@! TD*
D28*
G04 #@! TO.N,Net-(C1-Pad1)*
X134346800Y-108045300D03*
X140935800Y-105490500D03*
G04 #@! TO.N,VCC*
X136920100Y-106497700D03*
G04 #@! TO.N,Net-(C3-Pad2)*
X129060500Y-111475300D03*
X139780600Y-111181700D03*
X133823400Y-101870400D03*
G04 #@! TO.N,Net-(C5-Pad1)*
X132272300Y-104945300D03*
X142413100Y-105189100D03*
G04 #@! TO.N,Net-(J1-Pad2)*
X143822500Y-79052500D03*
X150427700Y-95872200D03*
G04 #@! TO.N,Net-(J3-Pad3)*
X141059800Y-91936300D03*
X133001800Y-104114100D03*
G04 #@! TO.N,Net-(J3-Pad1)*
X140090800Y-90657800D03*
X132345600Y-102504400D03*
G04 #@! TO.N,Net-(R1-Pad2)*
X140229800Y-88074700D03*
X142583400Y-101802800D03*
G04 #@! TO.N,Net-(U2-Pad8)*
X137934100Y-108958700D03*
X130856400Y-113153700D03*
G04 #@! TO.N,Net-(U2-Pad7)*
X138674600Y-109702600D03*
X129407700Y-114096400D03*
G04 #@! TD*
D29*
G04 #@! TO.N,Net-(C1-Pad1)*
X134035300Y-108820000D02*
X134346800Y-108508500D01*
X134346800Y-108508500D02*
X134346800Y-108045300D01*
X141605000Y-103820000D02*
X141605000Y-104745300D01*
X132910000Y-108820000D02*
X134035300Y-108820000D01*
X141605000Y-104745300D02*
X140935800Y-105414500D01*
X140935800Y-105414500D02*
X140935800Y-105490500D01*
G04 #@! TO.N,GND*
X139225000Y-100330000D02*
X139225000Y-101455300D01*
X139225000Y-101455300D02*
X138360000Y-102320300D01*
X138360000Y-102320300D02*
X138360000Y-104970000D01*
X131084200Y-110490000D02*
X128544200Y-113030000D01*
X128544200Y-113030000D02*
X127000000Y-113030000D01*
X131084200Y-110490000D02*
X131415300Y-110490000D01*
X130490000Y-110490000D02*
X131084200Y-110490000D01*
X131784700Y-110490000D02*
X131784700Y-110901500D01*
X131784700Y-110901500D02*
X132103200Y-111220000D01*
X131784700Y-110420000D02*
X131784700Y-110490000D01*
X131784700Y-110490000D02*
X131415300Y-110490000D01*
X138304600Y-110428000D02*
X140276700Y-110428000D01*
X140276700Y-110428000D02*
X140284700Y-110420000D01*
X138360000Y-106095300D02*
X137208700Y-107246600D01*
X137208700Y-107246600D02*
X137208700Y-109332100D01*
X137208700Y-109332100D02*
X138304600Y-110428000D01*
X138304600Y-110428000D02*
X138304600Y-110518900D01*
X138304600Y-110518900D02*
X136478800Y-112344700D01*
X141410000Y-112020000D02*
X141410000Y-111220000D01*
X140872600Y-110420000D02*
X141410000Y-110957400D01*
X141410000Y-110957400D02*
X141410000Y-111220000D01*
X140872600Y-110420000D02*
X140284700Y-110420000D01*
X141410000Y-110420000D02*
X140872600Y-110420000D01*
X140284700Y-110420000D02*
X140284700Y-108820000D01*
X141410000Y-108820000D02*
X140284700Y-108820000D01*
X145415000Y-82550000D02*
X144289700Y-82550000D01*
X139835600Y-88800000D02*
X140530300Y-88800000D01*
X140530300Y-88800000D02*
X141143900Y-88186400D01*
X141143900Y-88186400D02*
X141143900Y-87144200D01*
X141143900Y-87144200D02*
X141528500Y-86759600D01*
X141528500Y-86759600D02*
X143854600Y-86759600D01*
X143854600Y-86759600D02*
X144289700Y-87194700D01*
X144289700Y-87194700D02*
X144289700Y-87630000D01*
X144289700Y-82550000D02*
X139494000Y-87345700D01*
X139494000Y-87345700D02*
X139494000Y-88458400D01*
X139494000Y-88458400D02*
X139835600Y-88800000D01*
X130810000Y-100345000D02*
X131770400Y-99384600D01*
X131770400Y-99384600D02*
X131770400Y-96865200D01*
X131770400Y-96865200D02*
X139835600Y-88800000D01*
X145415000Y-87630000D02*
X144289700Y-87630000D01*
X145415000Y-90170000D02*
X145415000Y-87630000D01*
X132103200Y-111220000D02*
X131784700Y-111538500D01*
X131784700Y-111538500D02*
X131784700Y-112020000D01*
X132761500Y-111220000D02*
X132103200Y-111220000D01*
X132910000Y-112020000D02*
X131784700Y-112020000D01*
X132910000Y-111220000D02*
X132761500Y-111220000D01*
X132910000Y-112020000D02*
X134035300Y-112020000D01*
X134360000Y-112617500D02*
X134035300Y-112292800D01*
X134035300Y-112292800D02*
X134035300Y-112020000D01*
X134360000Y-112617500D02*
X134632800Y-112344700D01*
X134632800Y-112344700D02*
X135160000Y-112344700D01*
X134360000Y-113470000D02*
X134360000Y-112617500D01*
X139960000Y-106095300D02*
X138360000Y-106095300D01*
X136478800Y-112344700D02*
X135960000Y-112344700D01*
X136760000Y-112907300D02*
X136760000Y-112625900D01*
X136760000Y-112625900D02*
X136478800Y-112344700D01*
X138360000Y-104970000D02*
X138360000Y-106095300D01*
X139960000Y-104970000D02*
X139960000Y-106095300D01*
X140904700Y-101920000D02*
X139960000Y-102864700D01*
X139960000Y-102864700D02*
X139960000Y-104970000D01*
X135160000Y-112907300D02*
X135160000Y-112344700D01*
X135160000Y-113470000D02*
X135160000Y-112907300D01*
X135960000Y-112907300D02*
X135960000Y-112344700D01*
X135960000Y-113470000D02*
X135960000Y-112907300D01*
X135160000Y-112907300D02*
X135960000Y-112907300D01*
X136760000Y-113470000D02*
X136760000Y-112907300D01*
X132347400Y-110420000D02*
X131784700Y-110420000D01*
X132910000Y-110420000D02*
X132347400Y-110420000D01*
X132347400Y-109620000D02*
X132347400Y-110420000D01*
X132347400Y-109620000D02*
X131784700Y-109620000D01*
X132910000Y-109620000D02*
X132347400Y-109620000D01*
X126365000Y-110170000D02*
X126365000Y-111095300D01*
X127000000Y-113030000D02*
X127000000Y-111730300D01*
X127000000Y-111730300D02*
X126365000Y-111095300D01*
X128590000Y-108585000D02*
X129515300Y-108585000D01*
X131784700Y-108020000D02*
X131649400Y-107884700D01*
X131649400Y-107884700D02*
X129755200Y-107884700D01*
X129755200Y-107884700D02*
X129515300Y-108124600D01*
X129515300Y-108124600D02*
X129515300Y-108585000D01*
X131784700Y-109620000D02*
X131784700Y-108020000D01*
X141605000Y-101920000D02*
X141605000Y-100994700D01*
X143897700Y-95205000D02*
X144285400Y-95592700D01*
X144285400Y-95592700D02*
X144285400Y-99354700D01*
X144285400Y-99354700D02*
X144119700Y-99520400D01*
X144119700Y-99520400D02*
X143079300Y-99520400D01*
X143079300Y-99520400D02*
X141605000Y-100994700D01*
X143897700Y-95205000D02*
X144010300Y-95205000D01*
X142685000Y-95205000D02*
X143897700Y-95205000D01*
X145415000Y-90170000D02*
X145415000Y-91295300D01*
X145415000Y-91295300D02*
X144010300Y-92700000D01*
X144010300Y-92700000D02*
X144010300Y-95205000D01*
X132910000Y-108020000D02*
X131784700Y-108020000D01*
X141605000Y-101920000D02*
X140904700Y-101920000D01*
G04 #@! TO.N,VCC*
X142240000Y-113030000D02*
X142240000Y-115664700D01*
X142240000Y-115664700D02*
X140970000Y-116934700D01*
X132910000Y-107220000D02*
X136197800Y-107220000D01*
X136197800Y-107220000D02*
X136920100Y-106497700D01*
X136920100Y-106497700D02*
X137157600Y-106497700D01*
X137157600Y-106497700D02*
X137560000Y-106095300D01*
X137560000Y-104970000D02*
X137560000Y-106095300D01*
X132347400Y-107220000D02*
X132910000Y-107220000D01*
X132347400Y-107220000D02*
X131784700Y-107220000D01*
X141410000Y-108020000D02*
X142535300Y-108020000D01*
X142535200Y-109620000D02*
X142535300Y-109619900D01*
X142535300Y-109619900D02*
X142535300Y-108020000D01*
X142535200Y-109620000D02*
X142734700Y-109819500D01*
X142734700Y-109819500D02*
X142734700Y-111590000D01*
X142422700Y-109620000D02*
X142535200Y-109620000D01*
X137560000Y-104970000D02*
X137560000Y-103844700D01*
X137560000Y-103844700D02*
X137560000Y-99667500D01*
X137560000Y-99667500D02*
X140752500Y-96475000D01*
X140752500Y-96475000D02*
X142685000Y-96475000D01*
X127065300Y-108270000D02*
X127915700Y-107419600D01*
X127915700Y-107419600D02*
X131585100Y-107419600D01*
X131585100Y-107419600D02*
X131784700Y-107220000D01*
X128590000Y-109852200D02*
X128419800Y-109852200D01*
X128419800Y-109852200D02*
X127065300Y-108497700D01*
X127065300Y-108497700D02*
X127065300Y-108270000D01*
X126365000Y-108270000D02*
X127065300Y-108270000D01*
X125730000Y-100345000D02*
X125730000Y-102245300D01*
X126365000Y-108270000D02*
X125664700Y-108270000D01*
X125664700Y-108270000D02*
X124904700Y-107510000D01*
X124904700Y-107510000D02*
X124904700Y-103070600D01*
X124904700Y-103070600D02*
X125730000Y-102245300D01*
X141410000Y-109620000D02*
X142422700Y-109620000D01*
X140970000Y-118110000D02*
X140970000Y-116934700D01*
X142847300Y-111590000D02*
X142734700Y-111590000D01*
X143510000Y-111590000D02*
X142847300Y-111590000D01*
X142734700Y-111590000D02*
X142734700Y-112535300D01*
X142734700Y-112535300D02*
X142240000Y-113030000D01*
X128590000Y-110490000D02*
X128590000Y-109852200D01*
G04 #@! TO.N,Net-(C3-Pad2)*
X130490000Y-109285300D02*
X130227400Y-109285300D01*
X130227400Y-109285300D02*
X129515400Y-109997300D01*
X129515400Y-109997300D02*
X129515400Y-111020400D01*
X129515400Y-111020400D02*
X129060500Y-111475300D01*
X130490000Y-108585000D02*
X130490000Y-109285300D01*
X139960000Y-112344700D02*
X139780600Y-112165300D01*
X139780600Y-112165300D02*
X139780600Y-111181700D01*
X133825000Y-101455300D02*
X133823400Y-101456900D01*
X133823400Y-101456900D02*
X133823400Y-101870400D01*
X139960000Y-113470000D02*
X139960000Y-112344700D01*
X133825000Y-100330000D02*
X133825000Y-101455300D01*
G04 #@! TO.N,Net-(C4-Pad1)*
X133035000Y-116205000D02*
X133035000Y-116905300D01*
X133350000Y-118110000D02*
X133350000Y-116934700D01*
X133035000Y-116905300D02*
X133320600Y-116905300D01*
X133320600Y-116905300D02*
X133350000Y-116934700D01*
G04 #@! TO.N,Net-(C4-Pad2)*
X143510000Y-109390000D02*
X144285300Y-109390000D01*
X144285300Y-109390000D02*
X144285300Y-114256300D01*
X144285300Y-114256300D02*
X142240000Y-116301600D01*
X142240000Y-116301600D02*
X142240000Y-118541200D01*
X142240000Y-118541200D02*
X141472100Y-119309100D01*
X141472100Y-119309100D02*
X135416600Y-119309100D01*
X135416600Y-119309100D02*
X134713000Y-118605500D01*
X134713000Y-118605500D02*
X134713000Y-117127300D01*
X134713000Y-117127300D02*
X134935000Y-116905300D01*
X143510000Y-107630000D02*
X143510000Y-109390000D01*
X134935000Y-116205000D02*
X134935000Y-116905300D01*
X135860300Y-116205000D02*
X137470000Y-114595300D01*
X137470000Y-114595300D02*
X137560000Y-114595300D01*
X134935000Y-116205000D02*
X135860300Y-116205000D01*
X137560000Y-113470000D02*
X137560000Y-114595300D01*
G04 #@! TO.N,Net-(C5-Pad1)*
X143510000Y-105730000D02*
X142809700Y-105730000D01*
X132272300Y-104945300D02*
X131259700Y-104945300D01*
X131259700Y-104945300D02*
X130810000Y-105395000D01*
X142809700Y-105730000D02*
X142809700Y-105585700D01*
X142809700Y-105585700D02*
X142413100Y-105189100D01*
D30*
G04 #@! TO.N,Net-(F1-Pad1)*
X147955000Y-102870000D02*
X149860000Y-104775000D01*
X149860000Y-104775000D02*
X149860000Y-109220000D01*
G04 #@! TO.N,L_IN*
X149860000Y-93900000D02*
X152400000Y-96440000D01*
X153035000Y-87630000D02*
X149860000Y-90805000D01*
X149860000Y-90805000D02*
X149860000Y-93900000D01*
G04 #@! TO.N,L_OUT*
X131445000Y-76835000D02*
X134749600Y-80139600D01*
X134749600Y-80139600D02*
X149274300Y-80139600D01*
X149274300Y-80139600D02*
X151684700Y-82550000D01*
X153035000Y-82550000D02*
X151684700Y-82550000D01*
G04 #@! TO.N,Net-(J1-Pad2)*
X143822500Y-79052500D02*
X141605000Y-76835000D01*
X152955000Y-105670000D02*
X152955000Y-99566900D01*
X152955000Y-99566900D02*
X150427700Y-97039600D01*
X150427700Y-97039600D02*
X150427700Y-95872200D01*
D29*
G04 #@! TO.N,Net-(J2-Pad3)*
X138430000Y-118110000D02*
X138430000Y-116934700D01*
X138430000Y-116934700D02*
X139160000Y-116204700D01*
X139160000Y-116204700D02*
X139160000Y-113470000D01*
G04 #@! TO.N,Net-(J2-Pad2)*
X135890000Y-116934700D02*
X136020600Y-116934700D01*
X136020600Y-116934700D02*
X138360000Y-114595300D01*
X138360000Y-113470000D02*
X138360000Y-114595300D01*
X135890000Y-118110000D02*
X135890000Y-116934700D01*
G04 #@! TO.N,Net-(J3-Pad4)*
X132321800Y-101397400D02*
X132356100Y-101363100D01*
X132356100Y-101363100D02*
X132356100Y-99508800D01*
X132356100Y-99508800D02*
X133555400Y-98309500D01*
X133555400Y-98309500D02*
X133555400Y-98220600D01*
X133555400Y-98220600D02*
X140843900Y-90932100D01*
X140843900Y-90932100D02*
X140843900Y-90640800D01*
X140843900Y-90640800D02*
X141359700Y-90125000D01*
X132321800Y-101397400D02*
X131473900Y-102245300D01*
X131473900Y-102245300D02*
X128270000Y-102245300D01*
X135160000Y-103844700D02*
X134769000Y-103844700D01*
X134769000Y-103844700D02*
X132321800Y-101397400D01*
X135160000Y-104970000D02*
X135160000Y-103844700D01*
X142685000Y-90125000D02*
X141359700Y-90125000D01*
X128270000Y-100345000D02*
X128270000Y-102245300D01*
G04 #@! TO.N,Net-(J3-Pad3)*
X132910000Y-106420000D02*
X133001800Y-106328200D01*
X133001800Y-106328200D02*
X133001800Y-104114100D01*
X128270000Y-103494700D02*
X132382400Y-103494700D01*
X132382400Y-103494700D02*
X133001800Y-104114100D01*
X141359700Y-91395000D02*
X141359700Y-91636400D01*
X141359700Y-91636400D02*
X141059800Y-91936300D01*
X142685000Y-91395000D02*
X141359700Y-91395000D01*
X128270000Y-105395000D02*
X128270000Y-103494700D01*
G04 #@! TO.N,Net-(J3-Pad1)*
X125730000Y-103494700D02*
X126382100Y-102842600D01*
X126382100Y-102842600D02*
X132007400Y-102842600D01*
X132007400Y-102842600D02*
X132345600Y-102504400D01*
X134360000Y-104970000D02*
X134360000Y-104446500D01*
X134360000Y-104446500D02*
X132417900Y-102504400D01*
X132417900Y-102504400D02*
X132345600Y-102504400D01*
X125730000Y-105395000D02*
X125730000Y-103494700D01*
X140090800Y-90657800D02*
X141359700Y-89388900D01*
X141359700Y-89388900D02*
X141359700Y-88855000D01*
X142685000Y-88855000D02*
X141359700Y-88855000D01*
G04 #@! TO.N,Net-(R1-Pad1)*
X143510000Y-98595000D02*
X142734700Y-98595000D01*
X142734700Y-98595000D02*
X142734700Y-99104300D01*
X142734700Y-99104300D02*
X139160000Y-102679000D01*
X139160000Y-102679000D02*
X139160000Y-104970000D01*
G04 #@! TO.N,Net-(R1-Pad2)*
X143510000Y-100795000D02*
X142734700Y-100795000D01*
X142734700Y-100795000D02*
X142734700Y-101651500D01*
X142734700Y-101651500D02*
X142583400Y-101802800D01*
X140229800Y-88074700D02*
X140229800Y-87402300D01*
X140229800Y-87402300D02*
X142542100Y-85090000D01*
X142542100Y-85090000D02*
X145415000Y-85090000D01*
G04 #@! TO.N,Net-(U2-Pad14)*
X142685000Y-92665000D02*
X141359700Y-92665000D01*
X135960000Y-104970000D02*
X135960000Y-98064700D01*
X135960000Y-98064700D02*
X141359700Y-92665000D01*
G04 #@! TO.N,Net-(U2-Pad13)*
X136760000Y-104970000D02*
X136760000Y-98534700D01*
X136760000Y-98534700D02*
X141359700Y-93935000D01*
X142685000Y-93935000D02*
X141359700Y-93935000D01*
G04 #@! TO.N,Net-(U2-Pad8)*
X140284700Y-106420000D02*
X137934100Y-108770600D01*
X137934100Y-108770600D02*
X137934100Y-108958700D01*
X131040000Y-116840000D02*
X131040000Y-114464700D01*
X141410000Y-106420000D02*
X140284700Y-106420000D01*
X131040000Y-114464700D02*
X130856400Y-114281100D01*
X130856400Y-114281100D02*
X130856400Y-113153700D01*
G04 #@! TO.N,Net-(U2-Pad7)*
X140284700Y-107220000D02*
X138674600Y-108830100D01*
X138674600Y-108830100D02*
X138674600Y-109702600D01*
X128040000Y-116840000D02*
X128040000Y-114464700D01*
X141410000Y-107220000D02*
X140284700Y-107220000D01*
X128040000Y-114464700D02*
X129039400Y-114464700D01*
X129039400Y-114464700D02*
X129407700Y-114096400D01*
G04 #@! TD*
M02*
