G04 #@! TF.GenerationSoftware,KiCad,Pcbnew,(5.0.1)-4*
G04 #@! TF.CreationDate,2019-02-11T11:38:27+01:00*
G04 #@! TF.ProjectId,MyWallSwitch,4D7957616C6C5377697463682E6B6963,1*
G04 #@! TF.SameCoordinates,Original*
G04 #@! TF.FileFunction,Paste,Top*
G04 #@! TF.FilePolarity,Positive*
%FSLAX46Y46*%
G04 Gerber Fmt 4.6, Leading zero omitted, Abs format (unit mm)*
G04 Created by KiCad (PCBNEW (5.0.1)-4) date 11.02.2019 11:38:27*
%MOMM*%
%LPD*%
G01*
G04 APERTURE LIST*
%ADD10R,1.600000X1.600000*%
%ADD11R,2.000000X1.000000*%
%ADD12R,0.550000X1.600000*%
%ADD13R,1.600000X0.550000*%
%ADD14R,0.700000X4.100000*%
%ADD15R,1.000000X4.100000*%
%ADD16R,0.900000X1.200000*%
%ADD17R,1.000000X3.150000*%
%ADD18R,0.750000X1.200000*%
%ADD19R,1.200000X0.750000*%
%ADD20R,2.000000X1.600000*%
G04 APERTURE END LIST*
D10*
G04 #@! TO.C,U3*
X153035000Y-82550000D03*
X145415000Y-90170000D03*
X153035000Y-85090000D03*
X145415000Y-87630000D03*
X153035000Y-87630000D03*
X145415000Y-85090000D03*
X153035000Y-90170000D03*
X145415000Y-82550000D03*
G04 #@! TD*
D11*
G04 #@! TO.C,U4*
X142685000Y-96475000D03*
X142685000Y-95205000D03*
X142685000Y-93935000D03*
X142685000Y-92665000D03*
X142685000Y-91395000D03*
X142685000Y-90125000D03*
X142685000Y-88855000D03*
X142685000Y-87585000D03*
G04 #@! TD*
D12*
G04 #@! TO.C,U2*
X139960000Y-113470000D03*
X139160000Y-113470000D03*
X138360000Y-113470000D03*
X137560000Y-113470000D03*
X136760000Y-113470000D03*
X135960000Y-113470000D03*
X135160000Y-113470000D03*
X134360000Y-113470000D03*
D13*
X132910000Y-112020000D03*
X132910000Y-111220000D03*
X132910000Y-110420000D03*
X132910000Y-109620000D03*
X132910000Y-108820000D03*
X132910000Y-108020000D03*
X132910000Y-107220000D03*
X132910000Y-106420000D03*
D12*
X134360000Y-104970000D03*
X135160000Y-104970000D03*
X135960000Y-104970000D03*
X136760000Y-104970000D03*
X137560000Y-104970000D03*
X138360000Y-104970000D03*
X139160000Y-104970000D03*
X139960000Y-104970000D03*
D13*
X141410000Y-106420000D03*
X141410000Y-107220000D03*
X141410000Y-108020000D03*
X141410000Y-108820000D03*
X141410000Y-109620000D03*
X141410000Y-110420000D03*
X141410000Y-111220000D03*
X141410000Y-112020000D03*
G04 #@! TD*
D14*
G04 #@! TO.C,Y1*
X131040000Y-116840000D03*
D15*
X129540000Y-116840000D03*
D14*
X128040000Y-116840000D03*
G04 #@! TD*
D16*
G04 #@! TO.C,R1*
X143510000Y-98595000D03*
X143510000Y-100795000D03*
G04 #@! TD*
G04 #@! TO.C,R2*
X143510000Y-109390000D03*
X143510000Y-111590000D03*
G04 #@! TD*
D17*
G04 #@! TO.C,J3*
X125730000Y-105395000D03*
X125730000Y-100345000D03*
X128270000Y-105395000D03*
X128270000Y-100345000D03*
X130810000Y-105395000D03*
X130810000Y-100345000D03*
G04 #@! TD*
D18*
G04 #@! TO.C,C1*
X141605000Y-103820000D03*
X141605000Y-101920000D03*
G04 #@! TD*
D19*
G04 #@! TO.C,C3*
X130490000Y-108585000D03*
X128590000Y-108585000D03*
G04 #@! TD*
D18*
G04 #@! TO.C,C6*
X126365000Y-110170000D03*
X126365000Y-108270000D03*
G04 #@! TD*
D19*
G04 #@! TO.C,C4*
X133035000Y-116205000D03*
X134935000Y-116205000D03*
G04 #@! TD*
G04 #@! TO.C,C2*
X130490000Y-110490000D03*
X128590000Y-110490000D03*
G04 #@! TD*
D18*
G04 #@! TO.C,C5*
X143510000Y-105730000D03*
X143510000Y-107630000D03*
G04 #@! TD*
D20*
G04 #@! TO.C,SW1*
X139225000Y-100330000D03*
X133825000Y-100330000D03*
G04 #@! TD*
M02*
