M48
INCH,TZ
T1C0.0157
T2C0.0236
T3C0.0319
T4C0.0394
T5C0.0531
T6C0.0598
%
G90
G05
T1
X50811Y-43888
X50948Y-44920
X51518Y-44549
X52076Y-41317
X52105Y-40356
X52363Y-40990
X52686Y-40106
X52892Y-42538
X53906Y-41928
X54305Y-42897
X54596Y-43190
X55032Y-43772
X55154Y-35692
X55209Y-34675
X55487Y-41532
X55535Y-36195
X56068Y-41413
X56135Y-40080
X56623Y-31123
X59224Y-37745
T2
X58250Y-40500
X60219Y-41602
T3
X50000Y-44500
X52250Y-33000
X54000Y-33000
X56000Y-44500
T4
X52500Y-46500
X53500Y-46500
X54500Y-46500
X55500Y-46500
X56500Y-46500
X57500Y-46500
T5
X58000Y-37969
X58000Y-44000
X59000Y-36969
X59000Y-38969
X59000Y-43000
X59000Y-45000
X60000Y-37969
X60000Y-44000
T6
X51750Y-30250
X53750Y-30250
X55750Y-30250
X57750Y-30250
T0
M30
