G04 #@! TF.GenerationSoftware,KiCad,Pcbnew,(5.0.1)-4*
G04 #@! TF.CreationDate,2019-04-29T20:25:54+02:00*
G04 #@! TF.ProjectId,MyWallSwitch,4D7957616C6C5377697463682E6B6963,2*
G04 #@! TF.SameCoordinates,Original*
G04 #@! TF.FileFunction,Copper,L1,Top,Signal*
G04 #@! TF.FilePolarity,Positive*
%FSLAX46Y46*%
G04 Gerber Fmt 4.6, Leading zero omitted, Abs format (unit mm)*
G04 Created by KiCad (PCBNEW (5.0.1)-4) date 29.04.2019 20:25:54*
%MOMM*%
%LPD*%
G01*
G04 APERTURE LIST*
G04 #@! TA.AperFunction,SMDPad,CuDef*
%ADD10R,1.500000X1.500000*%
G04 #@! TD*
G04 #@! TA.AperFunction,ComponentPad*
%ADD11C,3.000000*%
G04 #@! TD*
G04 #@! TA.AperFunction,ComponentPad*
%ADD12R,3.000000X3.000000*%
G04 #@! TD*
G04 #@! TA.AperFunction,ComponentPad*
%ADD13C,2.350000*%
G04 #@! TD*
G04 #@! TA.AperFunction,SMDPad,CuDef*
%ADD14R,2.000000X1.000000*%
G04 #@! TD*
G04 #@! TA.AperFunction,SMDPad,CuDef*
%ADD15R,0.550000X1.600000*%
G04 #@! TD*
G04 #@! TA.AperFunction,SMDPad,CuDef*
%ADD16R,1.600000X0.550000*%
G04 #@! TD*
G04 #@! TA.AperFunction,SMDPad,CuDef*
%ADD17R,0.700000X4.100000*%
G04 #@! TD*
G04 #@! TA.AperFunction,SMDPad,CuDef*
%ADD18R,1.000000X4.100000*%
G04 #@! TD*
G04 #@! TA.AperFunction,ComponentPad*
%ADD19O,1.700000X1.700000*%
G04 #@! TD*
G04 #@! TA.AperFunction,ComponentPad*
%ADD20R,1.700000X1.700000*%
G04 #@! TD*
G04 #@! TA.AperFunction,SMDPad,CuDef*
%ADD21R,0.900000X1.200000*%
G04 #@! TD*
G04 #@! TA.AperFunction,ComponentPad*
%ADD22C,1.524000*%
G04 #@! TD*
G04 #@! TA.AperFunction,ComponentPad*
%ADD23C,1.600000*%
G04 #@! TD*
G04 #@! TA.AperFunction,SMDPad,CuDef*
%ADD24R,1.000000X3.150000*%
G04 #@! TD*
G04 #@! TA.AperFunction,SMDPad,CuDef*
%ADD25R,0.750000X1.200000*%
G04 #@! TD*
G04 #@! TA.AperFunction,SMDPad,CuDef*
%ADD26R,1.200000X0.750000*%
G04 #@! TD*
G04 #@! TA.AperFunction,SMDPad,CuDef*
%ADD27R,2.000000X1.600000*%
G04 #@! TD*
G04 #@! TA.AperFunction,ViaPad*
%ADD28C,0.800000*%
G04 #@! TD*
G04 #@! TA.AperFunction,Conductor*
%ADD29C,0.250000*%
G04 #@! TD*
G04 #@! TA.AperFunction,Conductor*
%ADD30C,0.500000*%
G04 #@! TD*
G04 #@! TA.AperFunction,Conductor*
%ADD31C,0.254000*%
G04 #@! TD*
G04 APERTURE END LIST*
D10*
G04 #@! TO.P,U3,8*
G04 #@! TO.N,L_OUT*
X153207000Y-82169000D03*
G04 #@! TO.P,U3,6*
G04 #@! TO.N,L_IN*
X153207000Y-87249000D03*
G04 #@! TO.P,U3,5*
G04 #@! TO.N,N/C*
X153207000Y-89789000D03*
G04 #@! TO.P,U3,4*
G04 #@! TO.N,GND*
X144907000Y-89789000D03*
G04 #@! TO.P,U3,3*
X144907000Y-87249000D03*
G04 #@! TO.P,U3,2*
G04 #@! TO.N,Net-(R1-Pad2)*
X144907000Y-84709000D03*
G04 #@! TO.P,U3,1*
G04 #@! TO.N,GND*
X144907000Y-82169000D03*
G04 #@! TD*
D11*
G04 #@! TO.P,J1,4*
G04 #@! TO.N,L_OUT*
X131445000Y-76835000D03*
D12*
G04 #@! TO.P,J1,1*
G04 #@! TO.N,Net-(F1-Pad1)*
X146685000Y-76835000D03*
D11*
G04 #@! TO.P,J1,3*
G04 #@! TO.N,Net-(J1-Pad2)*
X136525000Y-76835000D03*
G04 #@! TO.P,J1,2*
X141605000Y-76835000D03*
G04 #@! TD*
D13*
G04 #@! TO.P,F1,2*
G04 #@! TO.N,L_IN*
X149860000Y-98980000D03*
X149860000Y-93900000D03*
G04 #@! TO.P,F1,1*
G04 #@! TO.N,Net-(F1-Pad1)*
X149860000Y-109220000D03*
X149860000Y-114300000D03*
G04 #@! TO.P,F1,2*
G04 #@! TO.N,L_IN*
X152400000Y-96440000D03*
X147320000Y-96440000D03*
G04 #@! TO.P,F1,1*
G04 #@! TO.N,Net-(F1-Pad1)*
X152400000Y-111760000D03*
X147320000Y-111760000D03*
G04 #@! TD*
D14*
G04 #@! TO.P,U4,2*
G04 #@! TO.N,VCC*
X142685000Y-96475000D03*
G04 #@! TO.P,U4,1*
G04 #@! TO.N,GND*
X142685000Y-95205000D03*
G04 #@! TO.P,U4,3*
G04 #@! TO.N,Net-(U2-Pad13)*
X142685000Y-93935000D03*
G04 #@! TO.P,U4,4*
G04 #@! TO.N,Net-(U2-Pad14)*
X142685000Y-92665000D03*
G04 #@! TO.P,U4,5*
G04 #@! TO.N,Net-(J3-Pad3)*
X142685000Y-91395000D03*
G04 #@! TO.P,U4,6*
G04 #@! TO.N,Net-(J3-Pad4)*
X142685000Y-90125000D03*
G04 #@! TO.P,U4,7*
G04 #@! TO.N,Net-(J3-Pad1)*
X142685000Y-88855000D03*
G04 #@! TO.P,U4,8*
G04 #@! TO.N,N/C*
X142685000Y-87585000D03*
G04 #@! TD*
D15*
G04 #@! TO.P,U2,32*
G04 #@! TO.N,Net-(C3-Pad2)*
X139960000Y-112708000D03*
G04 #@! TO.P,U2,31*
G04 #@! TO.N,Net-(J2-Pad2)*
X139160000Y-112708000D03*
G04 #@! TO.P,U2,30*
G04 #@! TO.N,Net-(J2-Pad3)*
X138360000Y-112708000D03*
G04 #@! TO.P,U2,29*
G04 #@! TO.N,Net-(C4-Pad2)*
X137560000Y-112708000D03*
G04 #@! TO.P,U2,28*
G04 #@! TO.N,GND*
X136760000Y-112708000D03*
G04 #@! TO.P,U2,27*
X135960000Y-112708000D03*
G04 #@! TO.P,U2,26*
X135160000Y-112708000D03*
G04 #@! TO.P,U2,25*
X134360000Y-112708000D03*
D16*
G04 #@! TO.P,U2,24*
X132910000Y-111258000D03*
G04 #@! TO.P,U2,23*
X132910000Y-110458000D03*
G04 #@! TO.P,U2,22*
X132910000Y-109658000D03*
G04 #@! TO.P,U2,21*
X132910000Y-108858000D03*
G04 #@! TO.P,U2,20*
G04 #@! TO.N,Net-(C1-Pad1)*
X132910000Y-108058000D03*
G04 #@! TO.P,U2,19*
G04 #@! TO.N,GND*
X132910000Y-107258000D03*
G04 #@! TO.P,U2,18*
G04 #@! TO.N,VCC*
X132910000Y-106458000D03*
G04 #@! TO.P,U2,17*
G04 #@! TO.N,Net-(J3-Pad3)*
X132910000Y-105658000D03*
D15*
G04 #@! TO.P,U2,16*
G04 #@! TO.N,Net-(J3-Pad1)*
X134360000Y-104208000D03*
G04 #@! TO.P,U2,15*
G04 #@! TO.N,Net-(J3-Pad4)*
X135160000Y-104208000D03*
G04 #@! TO.P,U2,14*
G04 #@! TO.N,Net-(U2-Pad14)*
X135960000Y-104208000D03*
G04 #@! TO.P,U2,13*
G04 #@! TO.N,Net-(U2-Pad13)*
X136760000Y-104208000D03*
G04 #@! TO.P,U2,12*
G04 #@! TO.N,VCC*
X137560000Y-104208000D03*
G04 #@! TO.P,U2,11*
G04 #@! TO.N,GND*
X138360000Y-104208000D03*
G04 #@! TO.P,U2,10*
G04 #@! TO.N,Net-(R1-Pad1)*
X139160000Y-104208000D03*
G04 #@! TO.P,U2,9*
G04 #@! TO.N,GND*
X139960000Y-104208000D03*
D16*
G04 #@! TO.P,U2,8*
G04 #@! TO.N,Net-(U2-Pad8)*
X141410000Y-105658000D03*
G04 #@! TO.P,U2,7*
G04 #@! TO.N,Net-(U2-Pad7)*
X141410000Y-106458000D03*
G04 #@! TO.P,U2,6*
G04 #@! TO.N,VCC*
X141410000Y-107258000D03*
G04 #@! TO.P,U2,5*
G04 #@! TO.N,GND*
X141410000Y-108058000D03*
G04 #@! TO.P,U2,4*
G04 #@! TO.N,VCC*
X141410000Y-108858000D03*
G04 #@! TO.P,U2,3*
G04 #@! TO.N,GND*
X141410000Y-109658000D03*
G04 #@! TO.P,U2,2*
X141410000Y-110458000D03*
G04 #@! TO.P,U2,1*
X141410000Y-111258000D03*
G04 #@! TD*
D17*
G04 #@! TO.P,Y1,1*
G04 #@! TO.N,Net-(U2-Pad8)*
X131040000Y-116840000D03*
D18*
G04 #@! TO.P,Y1,2*
G04 #@! TO.N,GND*
X129540000Y-116840000D03*
D17*
G04 #@! TO.P,Y1,3*
G04 #@! TO.N,Net-(U2-Pad7)*
X128040000Y-116840000D03*
G04 #@! TD*
D19*
G04 #@! TO.P,J2,6*
G04 #@! TO.N,GND*
X146050000Y-118110000D03*
G04 #@! TO.P,J2,5*
X143510000Y-118110000D03*
G04 #@! TO.P,J2,4*
G04 #@! TO.N,VCC*
X140970000Y-118110000D03*
G04 #@! TO.P,J2,3*
G04 #@! TO.N,Net-(J2-Pad3)*
X138430000Y-118110000D03*
G04 #@! TO.P,J2,2*
G04 #@! TO.N,Net-(J2-Pad2)*
X135890000Y-118110000D03*
D20*
G04 #@! TO.P,J2,1*
G04 #@! TO.N,Net-(C4-Pad1)*
X133350000Y-118110000D03*
G04 #@! TD*
D21*
G04 #@! TO.P,R1,1*
G04 #@! TO.N,Net-(R1-Pad1)*
X143510000Y-98595000D03*
G04 #@! TO.P,R1,2*
G04 #@! TO.N,Net-(R1-Pad2)*
X143510000Y-100795000D03*
G04 #@! TD*
G04 #@! TO.P,R2,2*
G04 #@! TO.N,Net-(C4-Pad2)*
X143510000Y-109390000D03*
G04 #@! TO.P,R2,1*
G04 #@! TO.N,VCC*
X143510000Y-111590000D03*
G04 #@! TD*
D22*
G04 #@! TO.P,U1,1*
G04 #@! TO.N,Net-(F1-Pad1)*
X132715000Y-83820000D03*
G04 #@! TO.P,U1,2*
G04 #@! TO.N,Net-(J1-Pad2)*
X137160000Y-83820000D03*
G04 #@! TO.P,U1,3*
G04 #@! TO.N,GND*
X127000000Y-113030000D03*
G04 #@! TO.P,U1,4*
G04 #@! TO.N,VCC*
X142240000Y-113030000D03*
G04 #@! TD*
D23*
G04 #@! TO.P,RV1,2*
G04 #@! TO.N,Net-(J1-Pad2)*
X152955000Y-105670000D03*
G04 #@! TO.P,RV1,1*
G04 #@! TO.N,Net-(F1-Pad1)*
X147955000Y-102870000D03*
G04 #@! TD*
D24*
G04 #@! TO.P,J3,1*
G04 #@! TO.N,Net-(J3-Pad1)*
X125730000Y-105395000D03*
G04 #@! TO.P,J3,2*
G04 #@! TO.N,VCC*
X125730000Y-100345000D03*
G04 #@! TO.P,J3,3*
G04 #@! TO.N,Net-(J3-Pad3)*
X128270000Y-105395000D03*
G04 #@! TO.P,J3,4*
G04 #@! TO.N,Net-(J3-Pad4)*
X128270000Y-100345000D03*
G04 #@! TO.P,J3,5*
G04 #@! TO.N,Net-(C4-Pad2)*
X130810000Y-105395000D03*
G04 #@! TO.P,J3,6*
G04 #@! TO.N,GND*
X130810000Y-100345000D03*
G04 #@! TD*
D25*
G04 #@! TO.P,C1,1*
G04 #@! TO.N,Net-(C1-Pad1)*
X143510000Y-105913000D03*
G04 #@! TO.P,C1,2*
G04 #@! TO.N,GND*
X143510000Y-104013000D03*
G04 #@! TD*
D26*
G04 #@! TO.P,C3,2*
G04 #@! TO.N,Net-(C3-Pad2)*
X130490000Y-108585000D03*
G04 #@! TO.P,C3,1*
G04 #@! TO.N,GND*
X128590000Y-108585000D03*
G04 #@! TD*
D25*
G04 #@! TO.P,C6,2*
G04 #@! TO.N,GND*
X126365000Y-110170000D03*
G04 #@! TO.P,C6,1*
G04 #@! TO.N,VCC*
X126365000Y-108270000D03*
G04 #@! TD*
D26*
G04 #@! TO.P,C4,1*
G04 #@! TO.N,Net-(C4-Pad1)*
X133035000Y-116205000D03*
G04 #@! TO.P,C4,2*
G04 #@! TO.N,Net-(C4-Pad2)*
X134935000Y-116205000D03*
G04 #@! TD*
G04 #@! TO.P,C2,2*
G04 #@! TO.N,GND*
X130490000Y-110490000D03*
G04 #@! TO.P,C2,1*
G04 #@! TO.N,VCC*
X128590000Y-110490000D03*
G04 #@! TD*
D27*
G04 #@! TO.P,SW1,2*
G04 #@! TO.N,GND*
X139225000Y-100330000D03*
G04 #@! TO.P,SW1,1*
G04 #@! TO.N,Net-(C3-Pad2)*
X133825000Y-100330000D03*
G04 #@! TD*
D28*
G04 #@! TO.N,Net-(C1-Pad1)*
X142363000Y-104766000D03*
X134346000Y-108058000D03*
G04 #@! TO.N,GND*
X127620000Y-107679000D03*
G04 #@! TO.N,Net-(C3-Pad2)*
X129060000Y-111475000D03*
X133823000Y-101870000D03*
X139960000Y-114113000D03*
G04 #@! TO.N,Net-(C4-Pad2)*
X129540000Y-106785000D03*
X134935000Y-115216000D03*
G04 #@! TO.N,Net-(J1-Pad2)*
X143822000Y-79052500D03*
X150428000Y-95872200D03*
G04 #@! TO.N,Net-(J2-Pad2)*
X138980000Y-115162000D03*
G04 #@! TO.N,Net-(J3-Pad3)*
X141060000Y-91936300D03*
X132790000Y-104125000D03*
G04 #@! TO.N,Net-(J3-Pad1)*
X140091000Y-90657800D03*
X132346000Y-102504000D03*
G04 #@! TO.N,Net-(U2-Pad8)*
X130889000Y-112052000D03*
X138975000Y-106562000D03*
G04 #@! TO.N,Net-(U2-Pad7)*
X131754000Y-113302000D03*
X139996000Y-106623000D03*
G04 #@! TD*
D29*
G04 #@! TO.N,Net-(C1-Pad1)*
X134346000Y-108058000D02*
X132910000Y-108058000D01*
X143510000Y-105913000D02*
X142810000Y-105913000D01*
X142810000Y-105913000D02*
X142810000Y-105213000D01*
X142810000Y-105213000D02*
X142363000Y-104766000D01*
G04 #@! TO.N,GND*
X144907000Y-87249000D02*
X144907000Y-89789000D01*
X143781500Y-86742400D02*
X144400400Y-86742400D01*
X144400400Y-86742400D02*
X144907000Y-87249000D01*
X141524300Y-86742400D02*
X143781500Y-86742400D01*
X144907000Y-83244300D02*
X144369400Y-83244300D01*
X144369400Y-83244300D02*
X143781500Y-83832200D01*
X143781500Y-83832200D02*
X143781500Y-86742400D01*
X144907000Y-82169000D02*
X144907000Y-83244300D01*
X130810000Y-100345000D02*
X131770000Y-99384600D01*
X144010000Y-95205000D02*
X144907000Y-94308000D01*
X144907000Y-94308000D02*
X144907000Y-89789000D01*
X144010000Y-95205000D02*
X143898000Y-95205000D01*
X140847000Y-111258000D02*
X140847000Y-110458000D01*
X141410000Y-111258000D02*
X140847000Y-111258000D01*
X135960000Y-112758000D02*
X135960000Y-112708000D01*
X135160000Y-112758000D02*
X135960000Y-112758000D01*
X127000000Y-113030000D02*
X127000000Y-111730000D01*
X127000000Y-111730000D02*
X126365000Y-111095000D01*
X126365000Y-111095000D02*
X126365000Y-110170000D01*
X142685000Y-95205000D02*
X143898000Y-95205000D01*
X132872000Y-107220000D02*
X132910000Y-107220000D01*
X143898000Y-95205000D02*
X144285000Y-95592700D01*
X144285000Y-95592700D02*
X144285000Y-99354700D01*
X144285000Y-99354700D02*
X144120000Y-99520400D01*
X144120000Y-99520400D02*
X143079000Y-99520400D01*
X143079000Y-99520400D02*
X142735000Y-99864800D01*
X142735000Y-99864800D02*
X142735000Y-103083000D01*
X136760000Y-113470000D02*
X136760000Y-112758000D01*
X139225000Y-100330000D02*
X139225000Y-101455000D01*
X139225000Y-101455000D02*
X138360000Y-102320000D01*
X138360000Y-102320000D02*
X138360000Y-104208000D01*
X143510000Y-104013000D02*
X142922000Y-104013000D01*
X142922000Y-104013000D02*
X142735000Y-103825000D01*
X142735000Y-103825000D02*
X142735000Y-103083000D01*
X141410000Y-110420000D02*
X140873000Y-110420000D01*
X139960000Y-104208000D02*
X139960000Y-105333000D01*
X139960000Y-105333000D02*
X138360000Y-105333000D01*
X138360000Y-105333000D02*
X138360000Y-104208000D01*
X141410000Y-109658000D02*
X140454000Y-109658000D01*
X135960000Y-113470000D02*
X135960000Y-112758000D01*
X139960000Y-104208000D02*
X139960000Y-103083000D01*
X139960000Y-103083000D02*
X142735000Y-103083000D01*
X132910000Y-111258000D02*
X132910000Y-111220000D01*
X132910000Y-111220000D02*
X132762000Y-111220000D01*
X132762000Y-111220000D02*
X132762000Y-110591000D01*
X132762000Y-110591000D02*
X132629000Y-110458000D01*
X128590000Y-108585000D02*
X128590000Y-107885000D01*
X128590000Y-107885000D02*
X127826000Y-107885000D01*
X127826000Y-107885000D02*
X127620000Y-107679000D01*
X141410000Y-110458000D02*
X140847000Y-110458000D01*
X140847000Y-110458000D02*
X140873000Y-110432000D01*
X140873000Y-110432000D02*
X140873000Y-110420000D01*
X132910000Y-110458000D02*
X132629000Y-110458000D01*
X132910000Y-110420000D02*
X132628000Y-110420000D01*
X132628000Y-110420000D02*
X132347000Y-110420000D01*
X132628000Y-110420000D02*
X132629000Y-110420000D01*
X132629000Y-110420000D02*
X132629000Y-110458000D01*
X146050000Y-118110000D02*
X146050000Y-116935000D01*
X146050000Y-116935000D02*
X145714000Y-116599000D01*
X145714000Y-116599000D02*
X145714000Y-105517000D01*
X145714000Y-105517000D02*
X144210000Y-104013000D01*
X144210000Y-104013000D02*
X143510000Y-104013000D01*
X132910000Y-109620000D02*
X132872000Y-109620000D01*
X132872000Y-109620000D02*
X132910000Y-109658000D01*
X132872000Y-109620000D02*
X132452000Y-109620000D01*
X136760000Y-112758000D02*
X135960000Y-112758000D01*
X136760000Y-112758000D02*
X136760000Y-112708000D01*
X136760000Y-112708000D02*
X136760000Y-111583000D01*
X136760000Y-111583000D02*
X139960000Y-111583000D01*
X139960000Y-111583000D02*
X140285000Y-111258000D01*
X140285000Y-111258000D02*
X140847000Y-111258000D01*
X132872000Y-107220000D02*
X132910000Y-107258000D01*
X141410000Y-108058000D02*
X140285000Y-108058000D01*
X140285000Y-108058000D02*
X140285000Y-109489000D01*
X140285000Y-109489000D02*
X140454000Y-109658000D01*
X140873000Y-110420000D02*
X140454000Y-110001000D01*
X140454000Y-110001000D02*
X140454000Y-109658000D01*
X132399000Y-109620000D02*
X132399000Y-108858000D01*
X132910000Y-108858000D02*
X132399000Y-108858000D01*
X132452000Y-109620000D02*
X132399000Y-109620000D01*
X132399000Y-109620000D02*
X132347000Y-109620000D01*
X132452000Y-109620000D02*
X132347000Y-109725000D01*
X132347000Y-109725000D02*
X132347000Y-110420000D01*
X130490000Y-110490000D02*
X131084000Y-110490000D01*
X132347000Y-110420000D02*
X131154000Y-110420000D01*
X131154000Y-110420000D02*
X131084000Y-110490000D01*
X135160000Y-113470000D02*
X135160000Y-112758000D01*
X135160000Y-112708000D02*
X135160000Y-112758000D01*
X131084000Y-110490000D02*
X130004000Y-111570000D01*
X130004000Y-111570000D02*
X128544000Y-113030000D01*
X128544000Y-113030000D02*
X127000000Y-113030000D01*
X130004000Y-111570000D02*
X130004000Y-114001000D01*
X130004000Y-114001000D02*
X129540000Y-114465000D01*
X129540000Y-114465000D02*
X129540000Y-116840000D01*
X135160000Y-112708000D02*
X135160000Y-111583000D01*
X135160000Y-111583000D02*
X134633000Y-111583000D01*
X134633000Y-111583000D02*
X134496000Y-111719000D01*
X132910000Y-111258000D02*
X134035000Y-111258000D01*
X134035000Y-111258000D02*
X134496000Y-111719000D01*
X134360000Y-112708000D02*
X134360000Y-111856000D01*
X134360000Y-111856000D02*
X134496000Y-111719000D01*
X131770000Y-96496700D02*
X131770000Y-97028000D01*
X141524300Y-86742400D02*
X131770000Y-96496700D01*
X131770000Y-99384600D02*
X131770000Y-97028000D01*
X131770000Y-97028000D02*
X131770000Y-96865200D01*
X135236000Y-108858000D02*
X132910000Y-108858000D01*
X135509000Y-108585000D02*
X135236000Y-108858000D01*
X135509000Y-107569000D02*
X135509000Y-108585000D01*
X132910000Y-107258000D02*
X135198000Y-107258000D01*
X135198000Y-107258000D02*
X135509000Y-107569000D01*
G04 #@! TO.N,VCC*
X142735000Y-112535000D02*
X142735000Y-111590000D01*
X142523000Y-112747000D02*
X142735000Y-112535000D01*
X126365000Y-108270000D02*
X125665000Y-108270000D01*
X125665000Y-108270000D02*
X124905000Y-107510000D01*
X124905000Y-107510000D02*
X124905000Y-103071000D01*
X124905000Y-103071000D02*
X125730000Y-102245000D01*
X125730000Y-102245000D02*
X125730000Y-100345000D01*
X137560000Y-104208000D02*
X137560000Y-99667500D01*
X137560000Y-99667500D02*
X140752000Y-96475000D01*
X140752000Y-96475000D02*
X142685000Y-96475000D01*
X141410000Y-107258000D02*
X142535000Y-107258000D01*
X142535000Y-107258000D02*
X142535000Y-108858000D01*
X143510000Y-111590000D02*
X142735000Y-111590000D01*
X142735000Y-112535000D02*
X142523000Y-112747000D01*
X141410000Y-108858000D02*
X142535000Y-108858000D01*
X142523000Y-112747000D02*
X142240000Y-113030000D01*
X142240000Y-113030000D02*
X140970000Y-114300000D01*
X140970000Y-114300000D02*
X140970000Y-118110000D01*
X142535000Y-108858000D02*
X142535000Y-111391000D01*
X142535000Y-111391000D02*
X142735000Y-111590000D01*
X137560000Y-104208000D02*
X137560000Y-106374000D01*
X132910000Y-106458000D02*
X132910000Y-106420000D01*
X132910000Y-106420000D02*
X132956000Y-106374000D01*
X132956000Y-106374000D02*
X133002000Y-106328000D01*
X132956000Y-106374000D02*
X137560000Y-106374000D01*
X137560000Y-106374000D02*
X138599000Y-107413000D01*
X138599000Y-107413000D02*
X141255000Y-107413000D01*
X141255000Y-107413000D02*
X141410000Y-107258000D01*
X128590000Y-110490000D02*
X128590000Y-109852000D01*
X128590000Y-109852000D02*
X128420000Y-109852000D01*
X128420000Y-109852000D02*
X127065000Y-108498000D01*
X127065000Y-108498000D02*
X127065000Y-108270000D01*
X127065000Y-108270000D02*
X126365000Y-108270000D01*
X132910000Y-106458000D02*
X131785000Y-106458000D01*
X131785000Y-106458000D02*
X131785000Y-106958000D01*
X131785000Y-106958000D02*
X131050000Y-107692000D01*
X131050000Y-107692000D02*
X129906000Y-107692000D01*
X129906000Y-107692000D02*
X129565000Y-108034000D01*
X129565000Y-108034000D02*
X129565000Y-109057000D01*
X129565000Y-109057000D02*
X128770000Y-109852000D01*
X128770000Y-109852000D02*
X128590000Y-109852000D01*
G04 #@! TO.N,Net-(C3-Pad2)*
X133825000Y-100330000D02*
X133825000Y-101455000D01*
X133825000Y-101455000D02*
X133823000Y-101457000D01*
X133823000Y-101457000D02*
X133823000Y-101870000D01*
X130490000Y-108585000D02*
X130490000Y-109285000D01*
X130490000Y-109285000D02*
X130227000Y-109285000D01*
X130227000Y-109285000D02*
X129515000Y-109997000D01*
X129515000Y-109997000D02*
X129515000Y-111020000D01*
X129515000Y-111020000D02*
X129060000Y-111475000D01*
X139960000Y-114113000D02*
X139960000Y-112708000D01*
G04 #@! TO.N,Net-(C4-Pad1)*
X133035000Y-116205000D02*
X133035000Y-116905000D01*
X133035000Y-116905000D02*
X133321000Y-116905000D01*
X133321000Y-116905000D02*
X133350000Y-116935000D01*
X133350000Y-116935000D02*
X133350000Y-118110000D01*
G04 #@! TO.N,Net-(C4-Pad2)*
X134935000Y-116205000D02*
X134935000Y-115505000D01*
X134935000Y-116205000D02*
X134935000Y-116905000D01*
X134935000Y-116905000D02*
X134713000Y-117127000D01*
X134713000Y-117127000D02*
X134713000Y-118606000D01*
X134713000Y-118606000D02*
X135417000Y-119309000D01*
X135417000Y-119309000D02*
X141472000Y-119309000D01*
X141472000Y-119309000D02*
X142240000Y-118541000D01*
X142240000Y-118541000D02*
X142240000Y-116302000D01*
X142240000Y-116302000D02*
X144285000Y-114256000D01*
X144285000Y-114256000D02*
X144285000Y-109390000D01*
X144285000Y-109390000D02*
X143510000Y-109390000D01*
X137560000Y-112708000D02*
X137560000Y-113833000D01*
X137560000Y-113833000D02*
X135889000Y-115505000D01*
X135889000Y-115505000D02*
X134935000Y-115505000D01*
X131260000Y-104945000D02*
X130810000Y-105395000D01*
X134935000Y-115505000D02*
X134935000Y-115216000D01*
X130810000Y-105395000D02*
X129540000Y-106665000D01*
X129540000Y-106665000D02*
X129540000Y-106785000D01*
D30*
G04 #@! TO.N,Net-(F1-Pad1)*
X147955000Y-102870000D02*
X149860000Y-104775000D01*
X149860000Y-104775000D02*
X149860000Y-109220000D01*
G04 #@! TO.N,L_IN*
X153207000Y-87249000D02*
X149860000Y-90596000D01*
X149860000Y-90596000D02*
X149860000Y-93900000D01*
X149860000Y-93900000D02*
X152400000Y-96440000D01*
G04 #@! TO.N,L_OUT*
X153207000Y-82169000D02*
X151906700Y-82169000D01*
X131445000Y-76835000D02*
X135478700Y-80868700D01*
X135478700Y-80868700D02*
X150606400Y-80868700D01*
X150606400Y-80868700D02*
X151906700Y-82169000D01*
G04 #@! TO.N,Net-(J1-Pad2)*
X143822000Y-79052500D02*
X141605000Y-76835000D01*
X152955000Y-105670000D02*
X152955000Y-99566900D01*
X152955000Y-99566900D02*
X150428000Y-97039600D01*
X150428000Y-97039600D02*
X150428000Y-95872200D01*
D29*
G04 #@! TO.N,Net-(J2-Pad3)*
X138360000Y-112708000D02*
X138360000Y-113833000D01*
X138360000Y-113833000D02*
X138255000Y-113939000D01*
X138255000Y-113939000D02*
X138255000Y-116759000D01*
X138255000Y-116759000D02*
X138430000Y-116935000D01*
X138430000Y-116935000D02*
X138430000Y-118110000D01*
G04 #@! TO.N,Net-(J2-Pad2)*
X138980000Y-115162000D02*
X138980000Y-114013000D01*
X138980000Y-114013000D02*
X139160000Y-113833000D01*
X139160000Y-113833000D02*
X139160000Y-112708000D01*
G04 #@! TO.N,Net-(J3-Pad4)*
X128270000Y-100345000D02*
X128270000Y-102245000D01*
X128270000Y-102245000D02*
X131474000Y-102245000D01*
X131474000Y-102245000D02*
X132245000Y-101474000D01*
X132245000Y-101474000D02*
X132356000Y-101363000D01*
X132356000Y-101363000D02*
X132356000Y-99508800D01*
X132356000Y-99508800D02*
X133555000Y-98309500D01*
X133555000Y-98309500D02*
X133555000Y-98220600D01*
X133555000Y-98220600D02*
X140844000Y-90932100D01*
X140844000Y-90932100D02*
X140844000Y-90640800D01*
X140844000Y-90640800D02*
X141360000Y-90125000D01*
X141360000Y-90125000D02*
X142685000Y-90125000D01*
X132245000Y-101474000D02*
X132401000Y-101474000D01*
X132401000Y-101474000D02*
X134010000Y-103083000D01*
X134010000Y-103083000D02*
X135160000Y-103083000D01*
X135160000Y-103083000D02*
X135160000Y-104208000D01*
G04 #@! TO.N,Net-(J3-Pad3)*
X132790000Y-104125000D02*
X132382000Y-103717000D01*
X132382000Y-103717000D02*
X132382000Y-103495000D01*
X132382000Y-103495000D02*
X128270000Y-103495000D01*
X128270000Y-103495000D02*
X128270000Y-105395000D01*
X132910000Y-105658000D02*
X131785000Y-105658000D01*
X131785000Y-105658000D02*
X131785000Y-105130000D01*
X131785000Y-105130000D02*
X132790000Y-104125000D01*
X142685000Y-91395000D02*
X141360000Y-91395000D01*
X141360000Y-91395000D02*
X141360000Y-91636400D01*
X141360000Y-91636400D02*
X141060000Y-91936300D01*
G04 #@! TO.N,Net-(J3-Pad1)*
X125730000Y-105395000D02*
X125730000Y-103495000D01*
X125730000Y-103495000D02*
X126382000Y-102843000D01*
X126382000Y-102843000D02*
X132007000Y-102843000D01*
X132007000Y-102843000D02*
X132346000Y-102504000D01*
X142685000Y-88855000D02*
X141360000Y-88855000D01*
X141360000Y-88855000D02*
X141360000Y-89388900D01*
X141360000Y-89388900D02*
X140091000Y-90657800D01*
X134360000Y-104970000D02*
X134360000Y-104208000D01*
X134360000Y-104208000D02*
X132656000Y-102504000D01*
X132656000Y-102504000D02*
X132346000Y-102504000D01*
G04 #@! TO.N,Net-(R1-Pad1)*
X139160000Y-104208000D02*
X139160000Y-102802000D01*
X139160000Y-102802000D02*
X142735000Y-99227800D01*
X142735000Y-99227800D02*
X142735000Y-98595000D01*
X142735000Y-98595000D02*
X143510000Y-98595000D01*
G04 #@! TO.N,Net-(R1-Pad2)*
X144907000Y-84709000D02*
X144907000Y-85784300D01*
X143510000Y-100795000D02*
X144285300Y-100795000D01*
X144285300Y-100795000D02*
X145357400Y-99722900D01*
X145357400Y-99722900D02*
X145357400Y-94143500D01*
X145357400Y-94143500D02*
X145982300Y-93518600D01*
X145982300Y-93518600D02*
X145982300Y-86321900D01*
X145982300Y-86321900D02*
X145444700Y-85784300D01*
X145444700Y-85784300D02*
X144907000Y-85784300D01*
G04 #@! TO.N,Net-(U2-Pad14)*
X142685000Y-92665000D02*
X141360000Y-92665000D01*
X141360000Y-92665000D02*
X135960000Y-98064700D01*
X135960000Y-98064700D02*
X135960000Y-104208000D01*
G04 #@! TO.N,Net-(U2-Pad13)*
X142685000Y-93935000D02*
X141360000Y-93935000D01*
X141360000Y-93935000D02*
X136760000Y-98534700D01*
X136760000Y-98534700D02*
X136760000Y-104208000D01*
G04 #@! TO.N,Net-(U2-Pad8)*
X141410000Y-105658000D02*
X140285000Y-105658000D01*
X140285000Y-105658000D02*
X140110000Y-105833000D01*
X140110000Y-105833000D02*
X139704000Y-105833000D01*
X139704000Y-105833000D02*
X138975000Y-106562000D01*
X131040000Y-116840000D02*
X131040000Y-114465000D01*
X131040000Y-114465000D02*
X130889000Y-114313000D01*
X130889000Y-114313000D02*
X130889000Y-112052000D01*
G04 #@! TO.N,Net-(U2-Pad7)*
X139996000Y-106623000D02*
X140120000Y-106623000D01*
X140120000Y-106623000D02*
X140285000Y-106458000D01*
X140285000Y-106458000D02*
X141410000Y-106458000D01*
X128040000Y-116840000D02*
X128040000Y-118350000D01*
X128040000Y-118350000D02*
X128941000Y-119251000D01*
X128941000Y-119251000D02*
X131523000Y-119251000D01*
X131523000Y-119251000D02*
X131754000Y-119020000D01*
X131754000Y-119020000D02*
X131754000Y-113302000D01*
G04 #@! TD*
D31*
G04 #@! TO.N,GND*
G36*
X146294717Y-97974444D02*
X146959969Y-98250000D01*
X147680031Y-98250000D01*
X148311607Y-97988393D01*
X148050000Y-98619969D01*
X148050000Y-99340031D01*
X148325556Y-100005283D01*
X148834717Y-100514444D01*
X149499969Y-100790000D01*
X150220031Y-100790000D01*
X150885283Y-100514444D01*
X151394444Y-100005283D01*
X151613365Y-99476759D01*
X152070001Y-99933450D01*
X152070000Y-104525604D01*
X151738466Y-104857138D01*
X151520000Y-105384561D01*
X151520000Y-105955439D01*
X151738466Y-106482862D01*
X152142138Y-106886534D01*
X152669561Y-107105000D01*
X153240439Y-107105000D01*
X153570001Y-106968491D01*
X153570001Y-110370274D01*
X153425283Y-110225556D01*
X152760031Y-109950000D01*
X152039969Y-109950000D01*
X151408393Y-110211607D01*
X151670000Y-109580031D01*
X151670000Y-108859969D01*
X151394444Y-108194717D01*
X150885283Y-107685556D01*
X150745000Y-107627449D01*
X150745000Y-104862161D01*
X150762337Y-104775000D01*
X150745000Y-104687839D01*
X150745000Y-104687835D01*
X150693652Y-104429690D01*
X150627625Y-104330874D01*
X150547424Y-104210845D01*
X150547423Y-104210844D01*
X150498049Y-104136951D01*
X150424156Y-104087577D01*
X149390000Y-103053422D01*
X149390000Y-102584561D01*
X149171534Y-102057138D01*
X148767862Y-101653466D01*
X148240439Y-101435000D01*
X147669561Y-101435000D01*
X147142138Y-101653466D01*
X146738466Y-102057138D01*
X146520000Y-102584561D01*
X146520000Y-103155439D01*
X146738466Y-103682862D01*
X147142138Y-104086534D01*
X147669561Y-104305000D01*
X148138422Y-104305000D01*
X148975000Y-105141579D01*
X148975001Y-107627449D01*
X148834717Y-107685556D01*
X148325556Y-108194717D01*
X148050000Y-108859969D01*
X148050000Y-109580031D01*
X148311607Y-110211607D01*
X147680031Y-109950000D01*
X146959969Y-109950000D01*
X146294717Y-110225556D01*
X145785556Y-110734717D01*
X145510000Y-111399969D01*
X145510000Y-112120031D01*
X145785556Y-112785283D01*
X146294717Y-113294444D01*
X146959969Y-113570000D01*
X147680031Y-113570000D01*
X148311607Y-113308393D01*
X148050000Y-113939969D01*
X148050000Y-114660031D01*
X148325556Y-115325283D01*
X148834717Y-115834444D01*
X149499969Y-116110000D01*
X150220031Y-116110000D01*
X150885283Y-115834444D01*
X151394444Y-115325283D01*
X151670000Y-114660031D01*
X151670000Y-113939969D01*
X151408393Y-113308393D01*
X152039969Y-113570000D01*
X152760031Y-113570000D01*
X153425283Y-113294444D01*
X153570001Y-113149726D01*
X153570001Y-114847508D01*
X153501994Y-115609511D01*
X153308795Y-116315729D01*
X152993591Y-116976567D01*
X152566342Y-117571145D01*
X152040559Y-118080665D01*
X151432855Y-118489025D01*
X150762440Y-118783317D01*
X150044852Y-118955594D01*
X149421965Y-119001336D01*
X147234234Y-119001336D01*
X147245183Y-118991358D01*
X147491486Y-118466892D01*
X147370819Y-118237000D01*
X146177000Y-118237000D01*
X146177000Y-118257000D01*
X145923000Y-118257000D01*
X145923000Y-118237000D01*
X143637000Y-118237000D01*
X143637000Y-118257000D01*
X143383000Y-118257000D01*
X143383000Y-118237000D01*
X143363000Y-118237000D01*
X143363000Y-117983000D01*
X143383000Y-117983000D01*
X143383000Y-116789845D01*
X143637000Y-116789845D01*
X143637000Y-117983000D01*
X145923000Y-117983000D01*
X145923000Y-116789845D01*
X146177000Y-116789845D01*
X146177000Y-117983000D01*
X147370819Y-117983000D01*
X147491486Y-117753108D01*
X147245183Y-117228642D01*
X146816924Y-116838355D01*
X146406890Y-116668524D01*
X146177000Y-116789845D01*
X145923000Y-116789845D01*
X145693110Y-116668524D01*
X145283076Y-116838355D01*
X144854817Y-117228642D01*
X144780000Y-117387954D01*
X144705183Y-117228642D01*
X144276924Y-116838355D01*
X143866890Y-116668524D01*
X143637000Y-116789845D01*
X143383000Y-116789845D01*
X143153110Y-116668524D01*
X143000000Y-116731940D01*
X143000000Y-116616693D01*
X144769551Y-114846277D01*
X144832929Y-114803929D01*
X144875381Y-114740395D01*
X144875447Y-114740329D01*
X144916843Y-114678343D01*
X145000904Y-114552537D01*
X145000923Y-114552443D01*
X145000976Y-114552363D01*
X145030351Y-114404496D01*
X145045000Y-114330852D01*
X145045000Y-114330754D01*
X145059888Y-114255811D01*
X145045000Y-114181059D01*
X145045000Y-109464852D01*
X145059889Y-109390000D01*
X145000904Y-109093463D01*
X144832929Y-108842071D01*
X144584822Y-108676291D01*
X144558157Y-108542235D01*
X144417809Y-108332191D01*
X144207765Y-108191843D01*
X143960000Y-108142560D01*
X143295000Y-108142560D01*
X143295000Y-107332852D01*
X143309889Y-107258000D01*
X143290483Y-107160440D01*
X143885000Y-107160440D01*
X144132765Y-107111157D01*
X144342809Y-106970809D01*
X144483157Y-106760765D01*
X144532440Y-106513000D01*
X144532440Y-105313000D01*
X144483157Y-105065235D01*
X144422127Y-104973898D01*
X144423327Y-104972698D01*
X144520000Y-104739309D01*
X144520000Y-104298750D01*
X144361250Y-104140000D01*
X143637000Y-104140000D01*
X143637000Y-104160000D01*
X143383000Y-104160000D01*
X143383000Y-104140000D01*
X143363000Y-104140000D01*
X143363000Y-103886000D01*
X143383000Y-103886000D01*
X143383000Y-102936750D01*
X143637000Y-102936750D01*
X143637000Y-103886000D01*
X144361250Y-103886000D01*
X144520000Y-103727250D01*
X144520000Y-103286691D01*
X144423327Y-103053302D01*
X144244699Y-102874673D01*
X144011310Y-102778000D01*
X143795750Y-102778000D01*
X143637000Y-102936750D01*
X143383000Y-102936750D01*
X143224250Y-102778000D01*
X143008690Y-102778000D01*
X142775301Y-102874673D01*
X142596673Y-103053302D01*
X142500000Y-103286691D01*
X142500000Y-103727250D01*
X142503750Y-103731000D01*
X142157126Y-103731000D01*
X141776720Y-103888569D01*
X141485569Y-104179720D01*
X141328000Y-104560126D01*
X141328000Y-104735560D01*
X140870000Y-104735560D01*
X140870000Y-104493750D01*
X140711250Y-104335000D01*
X140087000Y-104335000D01*
X140087000Y-104355000D01*
X140082440Y-104355000D01*
X140082440Y-104061000D01*
X140087000Y-104061000D01*
X140087000Y-104081000D01*
X140711250Y-104081000D01*
X140870000Y-103922250D01*
X140870000Y-103281691D01*
X140773327Y-103048302D01*
X140594699Y-102869673D01*
X140361310Y-102773000D01*
X140263928Y-102773000D01*
X142412560Y-100624849D01*
X142412560Y-101395000D01*
X142461843Y-101642765D01*
X142602191Y-101852809D01*
X142812235Y-101993157D01*
X143060000Y-102042440D01*
X143960000Y-102042440D01*
X144207765Y-101993157D01*
X144417809Y-101852809D01*
X144558157Y-101642765D01*
X144584776Y-101508940D01*
X144833229Y-101342929D01*
X144875631Y-101279471D01*
X145841876Y-100313227D01*
X145905329Y-100270829D01*
X145947727Y-100207376D01*
X145947729Y-100207374D01*
X146073303Y-100019438D01*
X146073304Y-100019437D01*
X146117400Y-99797752D01*
X146117400Y-99797748D01*
X146132288Y-99722901D01*
X146117400Y-99648054D01*
X146117400Y-97797127D01*
X146294717Y-97974444D01*
X146294717Y-97974444D01*
G37*
X146294717Y-97974444D02*
X146959969Y-98250000D01*
X147680031Y-98250000D01*
X148311607Y-97988393D01*
X148050000Y-98619969D01*
X148050000Y-99340031D01*
X148325556Y-100005283D01*
X148834717Y-100514444D01*
X149499969Y-100790000D01*
X150220031Y-100790000D01*
X150885283Y-100514444D01*
X151394444Y-100005283D01*
X151613365Y-99476759D01*
X152070001Y-99933450D01*
X152070000Y-104525604D01*
X151738466Y-104857138D01*
X151520000Y-105384561D01*
X151520000Y-105955439D01*
X151738466Y-106482862D01*
X152142138Y-106886534D01*
X152669561Y-107105000D01*
X153240439Y-107105000D01*
X153570001Y-106968491D01*
X153570001Y-110370274D01*
X153425283Y-110225556D01*
X152760031Y-109950000D01*
X152039969Y-109950000D01*
X151408393Y-110211607D01*
X151670000Y-109580031D01*
X151670000Y-108859969D01*
X151394444Y-108194717D01*
X150885283Y-107685556D01*
X150745000Y-107627449D01*
X150745000Y-104862161D01*
X150762337Y-104775000D01*
X150745000Y-104687839D01*
X150745000Y-104687835D01*
X150693652Y-104429690D01*
X150627625Y-104330874D01*
X150547424Y-104210845D01*
X150547423Y-104210844D01*
X150498049Y-104136951D01*
X150424156Y-104087577D01*
X149390000Y-103053422D01*
X149390000Y-102584561D01*
X149171534Y-102057138D01*
X148767862Y-101653466D01*
X148240439Y-101435000D01*
X147669561Y-101435000D01*
X147142138Y-101653466D01*
X146738466Y-102057138D01*
X146520000Y-102584561D01*
X146520000Y-103155439D01*
X146738466Y-103682862D01*
X147142138Y-104086534D01*
X147669561Y-104305000D01*
X148138422Y-104305000D01*
X148975000Y-105141579D01*
X148975001Y-107627449D01*
X148834717Y-107685556D01*
X148325556Y-108194717D01*
X148050000Y-108859969D01*
X148050000Y-109580031D01*
X148311607Y-110211607D01*
X147680031Y-109950000D01*
X146959969Y-109950000D01*
X146294717Y-110225556D01*
X145785556Y-110734717D01*
X145510000Y-111399969D01*
X145510000Y-112120031D01*
X145785556Y-112785283D01*
X146294717Y-113294444D01*
X146959969Y-113570000D01*
X147680031Y-113570000D01*
X148311607Y-113308393D01*
X148050000Y-113939969D01*
X148050000Y-114660031D01*
X148325556Y-115325283D01*
X148834717Y-115834444D01*
X149499969Y-116110000D01*
X150220031Y-116110000D01*
X150885283Y-115834444D01*
X151394444Y-115325283D01*
X151670000Y-114660031D01*
X151670000Y-113939969D01*
X151408393Y-113308393D01*
X152039969Y-113570000D01*
X152760031Y-113570000D01*
X153425283Y-113294444D01*
X153570001Y-113149726D01*
X153570001Y-114847508D01*
X153501994Y-115609511D01*
X153308795Y-116315729D01*
X152993591Y-116976567D01*
X152566342Y-117571145D01*
X152040559Y-118080665D01*
X151432855Y-118489025D01*
X150762440Y-118783317D01*
X150044852Y-118955594D01*
X149421965Y-119001336D01*
X147234234Y-119001336D01*
X147245183Y-118991358D01*
X147491486Y-118466892D01*
X147370819Y-118237000D01*
X146177000Y-118237000D01*
X146177000Y-118257000D01*
X145923000Y-118257000D01*
X145923000Y-118237000D01*
X143637000Y-118237000D01*
X143637000Y-118257000D01*
X143383000Y-118257000D01*
X143383000Y-118237000D01*
X143363000Y-118237000D01*
X143363000Y-117983000D01*
X143383000Y-117983000D01*
X143383000Y-116789845D01*
X143637000Y-116789845D01*
X143637000Y-117983000D01*
X145923000Y-117983000D01*
X145923000Y-116789845D01*
X146177000Y-116789845D01*
X146177000Y-117983000D01*
X147370819Y-117983000D01*
X147491486Y-117753108D01*
X147245183Y-117228642D01*
X146816924Y-116838355D01*
X146406890Y-116668524D01*
X146177000Y-116789845D01*
X145923000Y-116789845D01*
X145693110Y-116668524D01*
X145283076Y-116838355D01*
X144854817Y-117228642D01*
X144780000Y-117387954D01*
X144705183Y-117228642D01*
X144276924Y-116838355D01*
X143866890Y-116668524D01*
X143637000Y-116789845D01*
X143383000Y-116789845D01*
X143153110Y-116668524D01*
X143000000Y-116731940D01*
X143000000Y-116616693D01*
X144769551Y-114846277D01*
X144832929Y-114803929D01*
X144875381Y-114740395D01*
X144875447Y-114740329D01*
X144916843Y-114678343D01*
X145000904Y-114552537D01*
X145000923Y-114552443D01*
X145000976Y-114552363D01*
X145030351Y-114404496D01*
X145045000Y-114330852D01*
X145045000Y-114330754D01*
X145059888Y-114255811D01*
X145045000Y-114181059D01*
X145045000Y-109464852D01*
X145059889Y-109390000D01*
X145000904Y-109093463D01*
X144832929Y-108842071D01*
X144584822Y-108676291D01*
X144558157Y-108542235D01*
X144417809Y-108332191D01*
X144207765Y-108191843D01*
X143960000Y-108142560D01*
X143295000Y-108142560D01*
X143295000Y-107332852D01*
X143309889Y-107258000D01*
X143290483Y-107160440D01*
X143885000Y-107160440D01*
X144132765Y-107111157D01*
X144342809Y-106970809D01*
X144483157Y-106760765D01*
X144532440Y-106513000D01*
X144532440Y-105313000D01*
X144483157Y-105065235D01*
X144422127Y-104973898D01*
X144423327Y-104972698D01*
X144520000Y-104739309D01*
X144520000Y-104298750D01*
X144361250Y-104140000D01*
X143637000Y-104140000D01*
X143637000Y-104160000D01*
X143383000Y-104160000D01*
X143383000Y-104140000D01*
X143363000Y-104140000D01*
X143363000Y-103886000D01*
X143383000Y-103886000D01*
X143383000Y-102936750D01*
X143637000Y-102936750D01*
X143637000Y-103886000D01*
X144361250Y-103886000D01*
X144520000Y-103727250D01*
X144520000Y-103286691D01*
X144423327Y-103053302D01*
X144244699Y-102874673D01*
X144011310Y-102778000D01*
X143795750Y-102778000D01*
X143637000Y-102936750D01*
X143383000Y-102936750D01*
X143224250Y-102778000D01*
X143008690Y-102778000D01*
X142775301Y-102874673D01*
X142596673Y-103053302D01*
X142500000Y-103286691D01*
X142500000Y-103727250D01*
X142503750Y-103731000D01*
X142157126Y-103731000D01*
X141776720Y-103888569D01*
X141485569Y-104179720D01*
X141328000Y-104560126D01*
X141328000Y-104735560D01*
X140870000Y-104735560D01*
X140870000Y-104493750D01*
X140711250Y-104335000D01*
X140087000Y-104335000D01*
X140087000Y-104355000D01*
X140082440Y-104355000D01*
X140082440Y-104061000D01*
X140087000Y-104061000D01*
X140087000Y-104081000D01*
X140711250Y-104081000D01*
X140870000Y-103922250D01*
X140870000Y-103281691D01*
X140773327Y-103048302D01*
X140594699Y-102869673D01*
X140361310Y-102773000D01*
X140263928Y-102773000D01*
X142412560Y-100624849D01*
X142412560Y-101395000D01*
X142461843Y-101642765D01*
X142602191Y-101852809D01*
X142812235Y-101993157D01*
X143060000Y-102042440D01*
X143960000Y-102042440D01*
X144207765Y-101993157D01*
X144417809Y-101852809D01*
X144558157Y-101642765D01*
X144584776Y-101508940D01*
X144833229Y-101342929D01*
X144875631Y-101279471D01*
X145841876Y-100313227D01*
X145905329Y-100270829D01*
X145947727Y-100207376D01*
X145947729Y-100207374D01*
X146073303Y-100019438D01*
X146073304Y-100019437D01*
X146117400Y-99797752D01*
X146117400Y-99797748D01*
X146132288Y-99722901D01*
X146117400Y-99648054D01*
X146117400Y-97797127D01*
X146294717Y-97974444D01*
G36*
X125286528Y-108931157D02*
X125365178Y-108983709D01*
X125391843Y-109117765D01*
X125452873Y-109209102D01*
X125451673Y-109210302D01*
X125355000Y-109443691D01*
X125355000Y-109884250D01*
X125513750Y-110043000D01*
X126238000Y-110043000D01*
X126238000Y-110023000D01*
X126492000Y-110023000D01*
X126492000Y-110043000D01*
X126512000Y-110043000D01*
X126512000Y-110297000D01*
X126492000Y-110297000D01*
X126492000Y-111246250D01*
X126650750Y-111405000D01*
X126866310Y-111405000D01*
X127099699Y-111308327D01*
X127278327Y-111129698D01*
X127357292Y-110939061D01*
X127391843Y-111112765D01*
X127532191Y-111322809D01*
X127742235Y-111463157D01*
X127990000Y-111512440D01*
X128025000Y-111512440D01*
X128025000Y-111680874D01*
X128182569Y-112061280D01*
X128473720Y-112352431D01*
X128854126Y-112510000D01*
X129265874Y-112510000D01*
X129646280Y-112352431D01*
X129854000Y-112144711D01*
X129854000Y-112257874D01*
X130011569Y-112638280D01*
X130129001Y-112755712D01*
X130129000Y-114155000D01*
X129825750Y-114155000D01*
X129667000Y-114313750D01*
X129667000Y-116713000D01*
X129687000Y-116713000D01*
X129687000Y-116967000D01*
X129667000Y-116967000D01*
X129667000Y-116987000D01*
X129413000Y-116987000D01*
X129413000Y-116967000D01*
X129393000Y-116967000D01*
X129393000Y-116713000D01*
X129413000Y-116713000D01*
X129413000Y-114313750D01*
X129254250Y-114155000D01*
X128913691Y-114155000D01*
X128709319Y-114239654D01*
X128637765Y-114191843D01*
X128390000Y-114142560D01*
X127762647Y-114142560D01*
X127800608Y-114010213D01*
X127000000Y-113209605D01*
X126199392Y-114010213D01*
X126268857Y-114252397D01*
X126792302Y-114439144D01*
X127173475Y-114420066D01*
X127091843Y-114542235D01*
X127042560Y-114790000D01*
X127042560Y-118288953D01*
X126591064Y-117951804D01*
X126084979Y-117404325D01*
X125687136Y-116773783D01*
X125410865Y-116081303D01*
X125262580Y-115335824D01*
X125240000Y-114904967D01*
X125240000Y-112822302D01*
X125590856Y-112822302D01*
X125618638Y-113377368D01*
X125777603Y-113761143D01*
X126019787Y-113830608D01*
X126820395Y-113030000D01*
X127179605Y-113030000D01*
X127980213Y-113830608D01*
X128222397Y-113761143D01*
X128409144Y-113237698D01*
X128381362Y-112682632D01*
X128222397Y-112298857D01*
X127980213Y-112229392D01*
X127179605Y-113030000D01*
X126820395Y-113030000D01*
X126019787Y-112229392D01*
X125777603Y-112298857D01*
X125590856Y-112822302D01*
X125240000Y-112822302D01*
X125240000Y-112049787D01*
X126199392Y-112049787D01*
X127000000Y-112850395D01*
X127800608Y-112049787D01*
X127731143Y-111807603D01*
X127207698Y-111620856D01*
X126652632Y-111648638D01*
X126268857Y-111807603D01*
X126199392Y-112049787D01*
X125240000Y-112049787D01*
X125240000Y-110455750D01*
X125355000Y-110455750D01*
X125355000Y-110896309D01*
X125451673Y-111129698D01*
X125630301Y-111308327D01*
X125863690Y-111405000D01*
X126079250Y-111405000D01*
X126238000Y-111246250D01*
X126238000Y-110297000D01*
X125513750Y-110297000D01*
X125355000Y-110455750D01*
X125240000Y-110455750D01*
X125240000Y-108900068D01*
X125286528Y-108931157D01*
X125286528Y-108931157D01*
G37*
X125286528Y-108931157D02*
X125365178Y-108983709D01*
X125391843Y-109117765D01*
X125452873Y-109209102D01*
X125451673Y-109210302D01*
X125355000Y-109443691D01*
X125355000Y-109884250D01*
X125513750Y-110043000D01*
X126238000Y-110043000D01*
X126238000Y-110023000D01*
X126492000Y-110023000D01*
X126492000Y-110043000D01*
X126512000Y-110043000D01*
X126512000Y-110297000D01*
X126492000Y-110297000D01*
X126492000Y-111246250D01*
X126650750Y-111405000D01*
X126866310Y-111405000D01*
X127099699Y-111308327D01*
X127278327Y-111129698D01*
X127357292Y-110939061D01*
X127391843Y-111112765D01*
X127532191Y-111322809D01*
X127742235Y-111463157D01*
X127990000Y-111512440D01*
X128025000Y-111512440D01*
X128025000Y-111680874D01*
X128182569Y-112061280D01*
X128473720Y-112352431D01*
X128854126Y-112510000D01*
X129265874Y-112510000D01*
X129646280Y-112352431D01*
X129854000Y-112144711D01*
X129854000Y-112257874D01*
X130011569Y-112638280D01*
X130129001Y-112755712D01*
X130129000Y-114155000D01*
X129825750Y-114155000D01*
X129667000Y-114313750D01*
X129667000Y-116713000D01*
X129687000Y-116713000D01*
X129687000Y-116967000D01*
X129667000Y-116967000D01*
X129667000Y-116987000D01*
X129413000Y-116987000D01*
X129413000Y-116967000D01*
X129393000Y-116967000D01*
X129393000Y-116713000D01*
X129413000Y-116713000D01*
X129413000Y-114313750D01*
X129254250Y-114155000D01*
X128913691Y-114155000D01*
X128709319Y-114239654D01*
X128637765Y-114191843D01*
X128390000Y-114142560D01*
X127762647Y-114142560D01*
X127800608Y-114010213D01*
X127000000Y-113209605D01*
X126199392Y-114010213D01*
X126268857Y-114252397D01*
X126792302Y-114439144D01*
X127173475Y-114420066D01*
X127091843Y-114542235D01*
X127042560Y-114790000D01*
X127042560Y-118288953D01*
X126591064Y-117951804D01*
X126084979Y-117404325D01*
X125687136Y-116773783D01*
X125410865Y-116081303D01*
X125262580Y-115335824D01*
X125240000Y-114904967D01*
X125240000Y-112822302D01*
X125590856Y-112822302D01*
X125618638Y-113377368D01*
X125777603Y-113761143D01*
X126019787Y-113830608D01*
X126820395Y-113030000D01*
X127179605Y-113030000D01*
X127980213Y-113830608D01*
X128222397Y-113761143D01*
X128409144Y-113237698D01*
X128381362Y-112682632D01*
X128222397Y-112298857D01*
X127980213Y-112229392D01*
X127179605Y-113030000D01*
X126820395Y-113030000D01*
X126019787Y-112229392D01*
X125777603Y-112298857D01*
X125590856Y-112822302D01*
X125240000Y-112822302D01*
X125240000Y-112049787D01*
X126199392Y-112049787D01*
X127000000Y-112850395D01*
X127800608Y-112049787D01*
X127731143Y-111807603D01*
X127207698Y-111620856D01*
X126652632Y-111648638D01*
X126268857Y-111807603D01*
X126199392Y-112049787D01*
X125240000Y-112049787D01*
X125240000Y-110455750D01*
X125355000Y-110455750D01*
X125355000Y-110896309D01*
X125451673Y-111129698D01*
X125630301Y-111308327D01*
X125863690Y-111405000D01*
X126079250Y-111405000D01*
X126238000Y-111246250D01*
X126238000Y-110297000D01*
X125513750Y-110297000D01*
X125355000Y-110455750D01*
X125240000Y-110455750D01*
X125240000Y-108900068D01*
X125286528Y-108931157D01*
G36*
X133037000Y-109609250D02*
X133085750Y-109658000D01*
X133037000Y-109706750D01*
X133037000Y-110409250D01*
X133085750Y-110458000D01*
X133037000Y-110506750D01*
X133037000Y-111209250D01*
X133195750Y-111368000D01*
X133729340Y-111368000D01*
X133725301Y-111369673D01*
X133709974Y-111385000D01*
X133037000Y-111385000D01*
X133037000Y-112009250D01*
X133195750Y-112168000D01*
X133450000Y-112168000D01*
X133450000Y-112422250D01*
X133608750Y-112581000D01*
X134233000Y-112581000D01*
X134233000Y-111908026D01*
X134248327Y-111892699D01*
X134250000Y-111888660D01*
X134250000Y-112422250D01*
X134408750Y-112581000D01*
X135111250Y-112581000D01*
X135160000Y-112532250D01*
X135208750Y-112581000D01*
X135911250Y-112581000D01*
X135960000Y-112532250D01*
X136008750Y-112581000D01*
X136107000Y-112581000D01*
X136107000Y-112835000D01*
X136008750Y-112835000D01*
X135960000Y-112883750D01*
X135911250Y-112835000D01*
X135208750Y-112835000D01*
X135160000Y-112883750D01*
X135111250Y-112835000D01*
X134408750Y-112835000D01*
X134250000Y-112993750D01*
X134250000Y-113634309D01*
X134346673Y-113867698D01*
X134525301Y-114046327D01*
X134565889Y-114063139D01*
X134645750Y-114143000D01*
X134874250Y-114143000D01*
X134954111Y-114063139D01*
X134994699Y-114046327D01*
X135160000Y-113881025D01*
X135325301Y-114046327D01*
X135365889Y-114063139D01*
X135445750Y-114143000D01*
X135674250Y-114143000D01*
X135754111Y-114063139D01*
X135794699Y-114046327D01*
X135960000Y-113881025D01*
X136125301Y-114046327D01*
X136165889Y-114063139D01*
X136210717Y-114107967D01*
X135750835Y-114568124D01*
X135521280Y-114338569D01*
X135140874Y-114181000D01*
X134729126Y-114181000D01*
X134348720Y-114338569D01*
X134057569Y-114629720D01*
X133900000Y-115010126D01*
X133900000Y-115243359D01*
X133882765Y-115231843D01*
X133635000Y-115182560D01*
X132514000Y-115182560D01*
X132514000Y-114005711D01*
X132631431Y-113888280D01*
X132789000Y-113507874D01*
X132789000Y-113096126D01*
X132746595Y-112993750D01*
X133450000Y-112993750D01*
X133450000Y-113634309D01*
X133546673Y-113867698D01*
X133725301Y-114046327D01*
X133958690Y-114143000D01*
X134074250Y-114143000D01*
X134233000Y-113984250D01*
X134233000Y-112835000D01*
X133608750Y-112835000D01*
X133450000Y-112993750D01*
X132746595Y-112993750D01*
X132631431Y-112715720D01*
X132340280Y-112424569D01*
X131959874Y-112267000D01*
X131920220Y-112267000D01*
X131924000Y-112257874D01*
X131924000Y-112143275D01*
X131983691Y-112168000D01*
X132624250Y-112168000D01*
X132783000Y-112009250D01*
X132783000Y-111385000D01*
X132763000Y-111385000D01*
X132763000Y-111229250D01*
X132783000Y-111209250D01*
X132783000Y-110506750D01*
X132734250Y-110458000D01*
X132783000Y-110409250D01*
X132783000Y-109706750D01*
X132763000Y-109686750D01*
X132763000Y-109629250D01*
X132783000Y-109609250D01*
X132783000Y-109511000D01*
X133037000Y-109511000D01*
X133037000Y-109609250D01*
X133037000Y-109609250D01*
G37*
X133037000Y-109609250D02*
X133085750Y-109658000D01*
X133037000Y-109706750D01*
X133037000Y-110409250D01*
X133085750Y-110458000D01*
X133037000Y-110506750D01*
X133037000Y-111209250D01*
X133195750Y-111368000D01*
X133729340Y-111368000D01*
X133725301Y-111369673D01*
X133709974Y-111385000D01*
X133037000Y-111385000D01*
X133037000Y-112009250D01*
X133195750Y-112168000D01*
X133450000Y-112168000D01*
X133450000Y-112422250D01*
X133608750Y-112581000D01*
X134233000Y-112581000D01*
X134233000Y-111908026D01*
X134248327Y-111892699D01*
X134250000Y-111888660D01*
X134250000Y-112422250D01*
X134408750Y-112581000D01*
X135111250Y-112581000D01*
X135160000Y-112532250D01*
X135208750Y-112581000D01*
X135911250Y-112581000D01*
X135960000Y-112532250D01*
X136008750Y-112581000D01*
X136107000Y-112581000D01*
X136107000Y-112835000D01*
X136008750Y-112835000D01*
X135960000Y-112883750D01*
X135911250Y-112835000D01*
X135208750Y-112835000D01*
X135160000Y-112883750D01*
X135111250Y-112835000D01*
X134408750Y-112835000D01*
X134250000Y-112993750D01*
X134250000Y-113634309D01*
X134346673Y-113867698D01*
X134525301Y-114046327D01*
X134565889Y-114063139D01*
X134645750Y-114143000D01*
X134874250Y-114143000D01*
X134954111Y-114063139D01*
X134994699Y-114046327D01*
X135160000Y-113881025D01*
X135325301Y-114046327D01*
X135365889Y-114063139D01*
X135445750Y-114143000D01*
X135674250Y-114143000D01*
X135754111Y-114063139D01*
X135794699Y-114046327D01*
X135960000Y-113881025D01*
X136125301Y-114046327D01*
X136165889Y-114063139D01*
X136210717Y-114107967D01*
X135750835Y-114568124D01*
X135521280Y-114338569D01*
X135140874Y-114181000D01*
X134729126Y-114181000D01*
X134348720Y-114338569D01*
X134057569Y-114629720D01*
X133900000Y-115010126D01*
X133900000Y-115243359D01*
X133882765Y-115231843D01*
X133635000Y-115182560D01*
X132514000Y-115182560D01*
X132514000Y-114005711D01*
X132631431Y-113888280D01*
X132789000Y-113507874D01*
X132789000Y-113096126D01*
X132746595Y-112993750D01*
X133450000Y-112993750D01*
X133450000Y-113634309D01*
X133546673Y-113867698D01*
X133725301Y-114046327D01*
X133958690Y-114143000D01*
X134074250Y-114143000D01*
X134233000Y-113984250D01*
X134233000Y-112835000D01*
X133608750Y-112835000D01*
X133450000Y-112993750D01*
X132746595Y-112993750D01*
X132631431Y-112715720D01*
X132340280Y-112424569D01*
X131959874Y-112267000D01*
X131920220Y-112267000D01*
X131924000Y-112257874D01*
X131924000Y-112143275D01*
X131983691Y-112168000D01*
X132624250Y-112168000D01*
X132783000Y-112009250D01*
X132783000Y-111385000D01*
X132763000Y-111385000D01*
X132763000Y-111229250D01*
X132783000Y-111209250D01*
X132783000Y-110506750D01*
X132734250Y-110458000D01*
X132783000Y-110409250D01*
X132783000Y-109706750D01*
X132763000Y-109686750D01*
X132763000Y-109629250D01*
X132783000Y-109609250D01*
X132783000Y-109511000D01*
X133037000Y-109511000D01*
X133037000Y-109609250D01*
G36*
X138008671Y-107897473D02*
X138051071Y-107960929D01*
X138302463Y-108128904D01*
X138524148Y-108173000D01*
X138524153Y-108173000D01*
X138599000Y-108187888D01*
X138673847Y-108173000D01*
X139975000Y-108173000D01*
X139975000Y-108185002D01*
X140112226Y-108185002D01*
X140068888Y-108249862D01*
X139975000Y-108343750D01*
X139975000Y-108459310D01*
X139983217Y-108479148D01*
X139962560Y-108583000D01*
X139962560Y-109133000D01*
X139983217Y-109236852D01*
X139975000Y-109256690D01*
X139975000Y-109372250D01*
X140068888Y-109466138D01*
X140152191Y-109590809D01*
X140243293Y-109651682D01*
X140071673Y-109823301D01*
X140054861Y-109863889D01*
X139975000Y-109943750D01*
X139975000Y-110172250D01*
X140054861Y-110252111D01*
X140071673Y-110292699D01*
X140236975Y-110458000D01*
X140071673Y-110623301D01*
X140054861Y-110663889D01*
X139975000Y-110743750D01*
X139975000Y-110972250D01*
X140054861Y-111052111D01*
X140071673Y-111092699D01*
X140240661Y-111261686D01*
X140235000Y-111260560D01*
X139685000Y-111260560D01*
X139560000Y-111285424D01*
X139435000Y-111260560D01*
X138885000Y-111260560D01*
X138760000Y-111285424D01*
X138635000Y-111260560D01*
X138085000Y-111260560D01*
X137960000Y-111285424D01*
X137835000Y-111260560D01*
X137285000Y-111260560D01*
X137181148Y-111281217D01*
X137161310Y-111273000D01*
X137045750Y-111273000D01*
X136951862Y-111366888D01*
X136827191Y-111450191D01*
X136766318Y-111541293D01*
X136594699Y-111369673D01*
X136554111Y-111352861D01*
X136474250Y-111273000D01*
X136245750Y-111273000D01*
X136165889Y-111352861D01*
X136125301Y-111369673D01*
X135960000Y-111534975D01*
X135794699Y-111369673D01*
X135754111Y-111352861D01*
X135674250Y-111273000D01*
X135445750Y-111273000D01*
X135365889Y-111352861D01*
X135325301Y-111369673D01*
X135160000Y-111534975D01*
X134994699Y-111369673D01*
X134954111Y-111352861D01*
X134874250Y-111273000D01*
X134645750Y-111273000D01*
X134565889Y-111352861D01*
X134525301Y-111369673D01*
X134346673Y-111548302D01*
X134345000Y-111552341D01*
X134345000Y-111543750D01*
X134074250Y-111273000D01*
X134065659Y-111273000D01*
X134069698Y-111271327D01*
X134248327Y-111092699D01*
X134265139Y-111052111D01*
X134345000Y-110972250D01*
X134345000Y-110743750D01*
X134265139Y-110663889D01*
X134248327Y-110623301D01*
X134083025Y-110458000D01*
X134248327Y-110292699D01*
X134265139Y-110252111D01*
X134345000Y-110172250D01*
X134345000Y-109943750D01*
X134265139Y-109863889D01*
X134248327Y-109823301D01*
X134083025Y-109658000D01*
X134248327Y-109492699D01*
X134265139Y-109452111D01*
X134345000Y-109372250D01*
X134345000Y-109143750D01*
X134294250Y-109093000D01*
X134551874Y-109093000D01*
X134932280Y-108935431D01*
X135223431Y-108644280D01*
X135381000Y-108263874D01*
X135381000Y-107852126D01*
X135223431Y-107471720D01*
X134932280Y-107180569D01*
X134819852Y-107134000D01*
X137245199Y-107134000D01*
X138008671Y-107897473D01*
X138008671Y-107897473D01*
G37*
X138008671Y-107897473D02*
X138051071Y-107960929D01*
X138302463Y-108128904D01*
X138524148Y-108173000D01*
X138524153Y-108173000D01*
X138599000Y-108187888D01*
X138673847Y-108173000D01*
X139975000Y-108173000D01*
X139975000Y-108185002D01*
X140112226Y-108185002D01*
X140068888Y-108249862D01*
X139975000Y-108343750D01*
X139975000Y-108459310D01*
X139983217Y-108479148D01*
X139962560Y-108583000D01*
X139962560Y-109133000D01*
X139983217Y-109236852D01*
X139975000Y-109256690D01*
X139975000Y-109372250D01*
X140068888Y-109466138D01*
X140152191Y-109590809D01*
X140243293Y-109651682D01*
X140071673Y-109823301D01*
X140054861Y-109863889D01*
X139975000Y-109943750D01*
X139975000Y-110172250D01*
X140054861Y-110252111D01*
X140071673Y-110292699D01*
X140236975Y-110458000D01*
X140071673Y-110623301D01*
X140054861Y-110663889D01*
X139975000Y-110743750D01*
X139975000Y-110972250D01*
X140054861Y-111052111D01*
X140071673Y-111092699D01*
X140240661Y-111261686D01*
X140235000Y-111260560D01*
X139685000Y-111260560D01*
X139560000Y-111285424D01*
X139435000Y-111260560D01*
X138885000Y-111260560D01*
X138760000Y-111285424D01*
X138635000Y-111260560D01*
X138085000Y-111260560D01*
X137960000Y-111285424D01*
X137835000Y-111260560D01*
X137285000Y-111260560D01*
X137181148Y-111281217D01*
X137161310Y-111273000D01*
X137045750Y-111273000D01*
X136951862Y-111366888D01*
X136827191Y-111450191D01*
X136766318Y-111541293D01*
X136594699Y-111369673D01*
X136554111Y-111352861D01*
X136474250Y-111273000D01*
X136245750Y-111273000D01*
X136165889Y-111352861D01*
X136125301Y-111369673D01*
X135960000Y-111534975D01*
X135794699Y-111369673D01*
X135754111Y-111352861D01*
X135674250Y-111273000D01*
X135445750Y-111273000D01*
X135365889Y-111352861D01*
X135325301Y-111369673D01*
X135160000Y-111534975D01*
X134994699Y-111369673D01*
X134954111Y-111352861D01*
X134874250Y-111273000D01*
X134645750Y-111273000D01*
X134565889Y-111352861D01*
X134525301Y-111369673D01*
X134346673Y-111548302D01*
X134345000Y-111552341D01*
X134345000Y-111543750D01*
X134074250Y-111273000D01*
X134065659Y-111273000D01*
X134069698Y-111271327D01*
X134248327Y-111092699D01*
X134265139Y-111052111D01*
X134345000Y-110972250D01*
X134345000Y-110743750D01*
X134265139Y-110663889D01*
X134248327Y-110623301D01*
X134083025Y-110458000D01*
X134248327Y-110292699D01*
X134265139Y-110252111D01*
X134345000Y-110172250D01*
X134345000Y-109943750D01*
X134265139Y-109863889D01*
X134248327Y-109823301D01*
X134083025Y-109658000D01*
X134248327Y-109492699D01*
X134265139Y-109452111D01*
X134345000Y-109372250D01*
X134345000Y-109143750D01*
X134294250Y-109093000D01*
X134551874Y-109093000D01*
X134932280Y-108935431D01*
X135223431Y-108644280D01*
X135381000Y-108263874D01*
X135381000Y-107852126D01*
X135223431Y-107471720D01*
X134932280Y-107180569D01*
X134819852Y-107134000D01*
X137245199Y-107134000D01*
X138008671Y-107897473D01*
G36*
X141537000Y-110409250D02*
X141557000Y-110429250D01*
X141557000Y-110486750D01*
X141537000Y-110506750D01*
X141537000Y-111209250D01*
X141557000Y-111229250D01*
X141557000Y-111385000D01*
X141537000Y-111385000D01*
X141537000Y-111405000D01*
X141283000Y-111405000D01*
X141283000Y-111385000D01*
X140595245Y-111385000D01*
X140569802Y-111368000D01*
X141124250Y-111368000D01*
X141283000Y-111209250D01*
X141283000Y-110506750D01*
X141234250Y-110458000D01*
X141283000Y-110409250D01*
X141283000Y-110311000D01*
X141537000Y-110311000D01*
X141537000Y-110409250D01*
X141537000Y-110409250D01*
G37*
X141537000Y-110409250D02*
X141557000Y-110429250D01*
X141557000Y-110486750D01*
X141537000Y-110506750D01*
X141537000Y-111209250D01*
X141557000Y-111229250D01*
X141557000Y-111385000D01*
X141537000Y-111385000D01*
X141537000Y-111405000D01*
X141283000Y-111405000D01*
X141283000Y-111385000D01*
X140595245Y-111385000D01*
X140569802Y-111368000D01*
X141124250Y-111368000D01*
X141283000Y-111209250D01*
X141283000Y-110506750D01*
X141234250Y-110458000D01*
X141283000Y-110409250D01*
X141283000Y-110311000D01*
X141537000Y-110311000D01*
X141537000Y-110409250D01*
G36*
X130617000Y-110363000D02*
X130637000Y-110363000D01*
X130637000Y-110617000D01*
X130617000Y-110617000D01*
X130617000Y-110637000D01*
X130363000Y-110637000D01*
X130363000Y-110617000D01*
X130343000Y-110617000D01*
X130343000Y-110363000D01*
X130363000Y-110363000D01*
X130363000Y-110343000D01*
X130617000Y-110343000D01*
X130617000Y-110363000D01*
X130617000Y-110363000D01*
G37*
X130617000Y-110363000D02*
X130637000Y-110363000D01*
X130637000Y-110617000D01*
X130617000Y-110617000D01*
X130617000Y-110637000D01*
X130363000Y-110637000D01*
X130363000Y-110617000D01*
X130343000Y-110617000D01*
X130343000Y-110363000D01*
X130363000Y-110363000D01*
X130363000Y-110343000D01*
X130617000Y-110343000D01*
X130617000Y-110363000D01*
G36*
X128717000Y-108458000D02*
X128737000Y-108458000D01*
X128737000Y-108712000D01*
X128717000Y-108712000D01*
X128717000Y-108732000D01*
X128463000Y-108732000D01*
X128463000Y-108712000D01*
X128443000Y-108712000D01*
X128443000Y-108458000D01*
X128463000Y-108458000D01*
X128463000Y-108438000D01*
X128717000Y-108438000D01*
X128717000Y-108458000D01*
X128717000Y-108458000D01*
G37*
X128717000Y-108458000D02*
X128737000Y-108458000D01*
X128737000Y-108712000D01*
X128717000Y-108712000D01*
X128717000Y-108732000D01*
X128463000Y-108732000D01*
X128463000Y-108712000D01*
X128443000Y-108712000D01*
X128443000Y-108458000D01*
X128463000Y-108458000D01*
X128463000Y-108438000D01*
X128717000Y-108438000D01*
X128717000Y-108458000D01*
G36*
X128462998Y-107733748D02*
X128346690Y-107617440D01*
X128462998Y-107617440D01*
X128462998Y-107733748D01*
X128462998Y-107733748D01*
G37*
X128462998Y-107733748D02*
X128346690Y-107617440D01*
X128462998Y-107617440D01*
X128462998Y-107733748D01*
G36*
X128717002Y-107733748D02*
X128717002Y-107617440D01*
X128770000Y-107617440D01*
X128849030Y-107601720D01*
X128717002Y-107733748D01*
X128717002Y-107733748D01*
G37*
X128717002Y-107733748D02*
X128717002Y-107617440D01*
X128770000Y-107617440D01*
X128849030Y-107601720D01*
X128717002Y-107733748D01*
G36*
X127522235Y-107568157D02*
X127764076Y-107616262D01*
X127630302Y-107671673D01*
X127593132Y-107708843D01*
X127364822Y-107556291D01*
X127343416Y-107448673D01*
X127522235Y-107568157D01*
X127522235Y-107568157D01*
G37*
X127522235Y-107568157D02*
X127764076Y-107616262D01*
X127630302Y-107671673D01*
X127593132Y-107708843D01*
X127364822Y-107556291D01*
X127343416Y-107448673D01*
X127522235Y-107568157D01*
G36*
X138427191Y-105465809D02*
X138551862Y-105549112D01*
X138599862Y-105597112D01*
X138388720Y-105684569D01*
X138320000Y-105753289D01*
X138320000Y-105425115D01*
X138360000Y-105365251D01*
X138427191Y-105465809D01*
X138427191Y-105465809D01*
G37*
X138427191Y-105465809D02*
X138551862Y-105549112D01*
X138599862Y-105597112D01*
X138388720Y-105684569D01*
X138320000Y-105753289D01*
X138320000Y-105425115D01*
X138360000Y-105365251D01*
X138427191Y-105465809D01*
G36*
X139097998Y-101765000D02*
X139122311Y-101765000D01*
X138675563Y-102211648D01*
X138612072Y-102254071D01*
X138529688Y-102377367D01*
X138444130Y-102505383D01*
X138444121Y-102505427D01*
X138444097Y-102505463D01*
X138414615Y-102653678D01*
X138385112Y-102801914D01*
X138400001Y-102876810D01*
X138400001Y-102990884D01*
X138360000Y-103050749D01*
X138320000Y-102990885D01*
X138320000Y-101765000D01*
X138939250Y-101765000D01*
X139097998Y-101606252D01*
X139097998Y-101765000D01*
X139097998Y-101765000D01*
G37*
X139097998Y-101765000D02*
X139122311Y-101765000D01*
X138675563Y-102211648D01*
X138612072Y-102254071D01*
X138529688Y-102377367D01*
X138444130Y-102505383D01*
X138444121Y-102505427D01*
X138444097Y-102505463D01*
X138414615Y-102653678D01*
X138385112Y-102801914D01*
X138400001Y-102876810D01*
X138400001Y-102990884D01*
X138360000Y-103050749D01*
X138320000Y-102990885D01*
X138320000Y-101765000D01*
X138939250Y-101765000D01*
X139097998Y-101606252D01*
X139097998Y-101765000D01*
G36*
X129675000Y-98643691D02*
X129675000Y-100059250D01*
X129833750Y-100218000D01*
X130683000Y-100218000D01*
X130683000Y-100198000D01*
X130937000Y-100198000D01*
X130937000Y-100218000D01*
X130957000Y-100218000D01*
X130957000Y-100472000D01*
X130937000Y-100472000D01*
X130937000Y-100492000D01*
X130683000Y-100492000D01*
X130683000Y-100472000D01*
X129833750Y-100472000D01*
X129675000Y-100630750D01*
X129675000Y-101485000D01*
X129417440Y-101485000D01*
X129417440Y-98770000D01*
X129374078Y-98552000D01*
X129712980Y-98552000D01*
X129675000Y-98643691D01*
X129675000Y-98643691D01*
G37*
X129675000Y-98643691D02*
X129675000Y-100059250D01*
X129833750Y-100218000D01*
X130683000Y-100218000D01*
X130683000Y-100198000D01*
X130937000Y-100198000D01*
X130937000Y-100218000D01*
X130957000Y-100218000D01*
X130957000Y-100472000D01*
X130937000Y-100472000D01*
X130937000Y-100492000D01*
X130683000Y-100492000D01*
X130683000Y-100472000D01*
X129833750Y-100472000D01*
X129675000Y-100630750D01*
X129675000Y-101485000D01*
X129417440Y-101485000D01*
X129417440Y-98770000D01*
X129374078Y-98552000D01*
X129712980Y-98552000D01*
X129675000Y-98643691D01*
G36*
X139352000Y-100203000D02*
X139372000Y-100203000D01*
X139372000Y-100457000D01*
X139352000Y-100457000D01*
X139352000Y-100477000D01*
X139098000Y-100477000D01*
X139098000Y-100457000D01*
X139078000Y-100457000D01*
X139078000Y-100203000D01*
X139098000Y-100203000D01*
X139098000Y-100183000D01*
X139352000Y-100183000D01*
X139352000Y-100203000D01*
X139352000Y-100203000D01*
G37*
X139352000Y-100203000D02*
X139372000Y-100203000D01*
X139372000Y-100457000D01*
X139352000Y-100457000D01*
X139352000Y-100477000D01*
X139098000Y-100477000D01*
X139098000Y-100457000D01*
X139078000Y-100457000D01*
X139078000Y-100203000D01*
X139098000Y-100203000D01*
X139098000Y-100183000D01*
X139352000Y-100183000D01*
X139352000Y-100203000D01*
G36*
X129310000Y-76410322D02*
X129310000Y-77259678D01*
X129635034Y-78044380D01*
X130235620Y-78644966D01*
X131020322Y-78970000D01*
X131869678Y-78970000D01*
X132194059Y-78835637D01*
X134791277Y-81432856D01*
X134840651Y-81506749D01*
X134914544Y-81556123D01*
X134914545Y-81556124D01*
X134987461Y-81604845D01*
X135133390Y-81702352D01*
X135391535Y-81753700D01*
X135391539Y-81753700D01*
X135478699Y-81771037D01*
X135565859Y-81753700D01*
X143522000Y-81753700D01*
X143522000Y-81883250D01*
X143680750Y-82042000D01*
X144780000Y-82042000D01*
X144780000Y-82022000D01*
X145034000Y-82022000D01*
X145034000Y-82042000D01*
X146133250Y-82042000D01*
X146292000Y-81883250D01*
X146292000Y-81753700D01*
X150239822Y-81753700D01*
X151219277Y-82733156D01*
X151268651Y-82807049D01*
X151342544Y-82856423D01*
X151342545Y-82856424D01*
X151561390Y-83002652D01*
X151819535Y-83054000D01*
X151819539Y-83054000D01*
X151837108Y-83057495D01*
X151858843Y-83166765D01*
X151999191Y-83376809D01*
X152209235Y-83517157D01*
X152457000Y-83566440D01*
X153570000Y-83566440D01*
X153570000Y-85851560D01*
X152457000Y-85851560D01*
X152209235Y-85900843D01*
X151999191Y-86041191D01*
X151858843Y-86251235D01*
X151809560Y-86499000D01*
X151809560Y-87394861D01*
X149295847Y-89908575D01*
X149221951Y-89957951D01*
X149026348Y-90250691D01*
X148975000Y-90508836D01*
X148975000Y-90508839D01*
X148957663Y-90596000D01*
X148975000Y-90683161D01*
X148975001Y-92307449D01*
X148834717Y-92365556D01*
X148325556Y-92874717D01*
X148050000Y-93539969D01*
X148050000Y-94260031D01*
X148311607Y-94891607D01*
X147680031Y-94630000D01*
X146959969Y-94630000D01*
X146294717Y-94905556D01*
X146117400Y-95082873D01*
X146117400Y-94458301D01*
X146466773Y-94108929D01*
X146530229Y-94066529D01*
X146698204Y-93815137D01*
X146742300Y-93593452D01*
X146742300Y-93593448D01*
X146757188Y-93518601D01*
X146742300Y-93443754D01*
X146742300Y-86396746D01*
X146757188Y-86321899D01*
X146742300Y-86247052D01*
X146742300Y-86247048D01*
X146698204Y-86025363D01*
X146530229Y-85773971D01*
X146466772Y-85731571D01*
X146286150Y-85550949D01*
X146304440Y-85459000D01*
X146304440Y-83959000D01*
X146255157Y-83711235D01*
X146114809Y-83501191D01*
X146029702Y-83444324D01*
X146195327Y-83278698D01*
X146292000Y-83045309D01*
X146292000Y-82454750D01*
X146133250Y-82296000D01*
X145034000Y-82296000D01*
X145034000Y-82316000D01*
X144780000Y-82316000D01*
X144780000Y-82296000D01*
X143680750Y-82296000D01*
X143522000Y-82454750D01*
X143522000Y-83045309D01*
X143618673Y-83278698D01*
X143784298Y-83444324D01*
X143699191Y-83501191D01*
X143558843Y-83711235D01*
X143509560Y-83959000D01*
X143509560Y-85459000D01*
X143558843Y-85706765D01*
X143699191Y-85916809D01*
X143784298Y-85973676D01*
X143618673Y-86139302D01*
X143522000Y-86372691D01*
X143522000Y-86437560D01*
X141685000Y-86437560D01*
X141437235Y-86486843D01*
X141227191Y-86627191D01*
X141086843Y-86837235D01*
X141037560Y-87085000D01*
X141037560Y-88085000D01*
X141050097Y-88148027D01*
X140812071Y-88307071D01*
X140644096Y-88558463D01*
X140585111Y-88855000D01*
X140600000Y-88929852D01*
X140600000Y-89074080D01*
X140051237Y-89622800D01*
X139885126Y-89622800D01*
X139504720Y-89780369D01*
X139213569Y-90071520D01*
X139056000Y-90451926D01*
X139056000Y-90863674D01*
X139213569Y-91244080D01*
X139335360Y-91365871D01*
X133070539Y-97630263D01*
X133007071Y-97672671D01*
X132912006Y-97814946D01*
X132839107Y-97924039D01*
X132839105Y-97924050D01*
X132839096Y-97924063D01*
X132832495Y-97957250D01*
X131945000Y-98844967D01*
X131945000Y-98643691D01*
X131848327Y-98410302D01*
X131669699Y-98231673D01*
X131572000Y-98191205D01*
X131572000Y-85090000D01*
X131562333Y-85041399D01*
X131534803Y-85000197D01*
X131493601Y-84972667D01*
X131445000Y-84963000D01*
X125240000Y-84963000D01*
X125240000Y-83542119D01*
X131318000Y-83542119D01*
X131318000Y-84097881D01*
X131530680Y-84611337D01*
X131923663Y-85004320D01*
X132437119Y-85217000D01*
X132992881Y-85217000D01*
X133506337Y-85004320D01*
X133899320Y-84611337D01*
X134112000Y-84097881D01*
X134112000Y-83542119D01*
X135763000Y-83542119D01*
X135763000Y-84097881D01*
X135975680Y-84611337D01*
X136368663Y-85004320D01*
X136882119Y-85217000D01*
X137437881Y-85217000D01*
X137951337Y-85004320D01*
X138344320Y-84611337D01*
X138557000Y-84097881D01*
X138557000Y-83542119D01*
X138344320Y-83028663D01*
X137951337Y-82635680D01*
X137437881Y-82423000D01*
X136882119Y-82423000D01*
X136368663Y-82635680D01*
X135975680Y-83028663D01*
X135763000Y-83542119D01*
X134112000Y-83542119D01*
X133899320Y-83028663D01*
X133506337Y-82635680D01*
X132992881Y-82423000D01*
X132437119Y-82423000D01*
X131923663Y-82635680D01*
X131530680Y-83028663D01*
X131318000Y-83542119D01*
X125240000Y-83542119D01*
X125240000Y-80202771D01*
X125311120Y-79389866D01*
X125513982Y-78632775D01*
X125845227Y-77922416D01*
X126294801Y-77280358D01*
X126849025Y-76726135D01*
X127491080Y-76276563D01*
X128201438Y-75945318D01*
X128958530Y-75742456D01*
X129610257Y-75685437D01*
X129310000Y-76410322D01*
X129310000Y-76410322D01*
G37*
X129310000Y-76410322D02*
X129310000Y-77259678D01*
X129635034Y-78044380D01*
X130235620Y-78644966D01*
X131020322Y-78970000D01*
X131869678Y-78970000D01*
X132194059Y-78835637D01*
X134791277Y-81432856D01*
X134840651Y-81506749D01*
X134914544Y-81556123D01*
X134914545Y-81556124D01*
X134987461Y-81604845D01*
X135133390Y-81702352D01*
X135391535Y-81753700D01*
X135391539Y-81753700D01*
X135478699Y-81771037D01*
X135565859Y-81753700D01*
X143522000Y-81753700D01*
X143522000Y-81883250D01*
X143680750Y-82042000D01*
X144780000Y-82042000D01*
X144780000Y-82022000D01*
X145034000Y-82022000D01*
X145034000Y-82042000D01*
X146133250Y-82042000D01*
X146292000Y-81883250D01*
X146292000Y-81753700D01*
X150239822Y-81753700D01*
X151219277Y-82733156D01*
X151268651Y-82807049D01*
X151342544Y-82856423D01*
X151342545Y-82856424D01*
X151561390Y-83002652D01*
X151819535Y-83054000D01*
X151819539Y-83054000D01*
X151837108Y-83057495D01*
X151858843Y-83166765D01*
X151999191Y-83376809D01*
X152209235Y-83517157D01*
X152457000Y-83566440D01*
X153570000Y-83566440D01*
X153570000Y-85851560D01*
X152457000Y-85851560D01*
X152209235Y-85900843D01*
X151999191Y-86041191D01*
X151858843Y-86251235D01*
X151809560Y-86499000D01*
X151809560Y-87394861D01*
X149295847Y-89908575D01*
X149221951Y-89957951D01*
X149026348Y-90250691D01*
X148975000Y-90508836D01*
X148975000Y-90508839D01*
X148957663Y-90596000D01*
X148975000Y-90683161D01*
X148975001Y-92307449D01*
X148834717Y-92365556D01*
X148325556Y-92874717D01*
X148050000Y-93539969D01*
X148050000Y-94260031D01*
X148311607Y-94891607D01*
X147680031Y-94630000D01*
X146959969Y-94630000D01*
X146294717Y-94905556D01*
X146117400Y-95082873D01*
X146117400Y-94458301D01*
X146466773Y-94108929D01*
X146530229Y-94066529D01*
X146698204Y-93815137D01*
X146742300Y-93593452D01*
X146742300Y-93593448D01*
X146757188Y-93518601D01*
X146742300Y-93443754D01*
X146742300Y-86396746D01*
X146757188Y-86321899D01*
X146742300Y-86247052D01*
X146742300Y-86247048D01*
X146698204Y-86025363D01*
X146530229Y-85773971D01*
X146466772Y-85731571D01*
X146286150Y-85550949D01*
X146304440Y-85459000D01*
X146304440Y-83959000D01*
X146255157Y-83711235D01*
X146114809Y-83501191D01*
X146029702Y-83444324D01*
X146195327Y-83278698D01*
X146292000Y-83045309D01*
X146292000Y-82454750D01*
X146133250Y-82296000D01*
X145034000Y-82296000D01*
X145034000Y-82316000D01*
X144780000Y-82316000D01*
X144780000Y-82296000D01*
X143680750Y-82296000D01*
X143522000Y-82454750D01*
X143522000Y-83045309D01*
X143618673Y-83278698D01*
X143784298Y-83444324D01*
X143699191Y-83501191D01*
X143558843Y-83711235D01*
X143509560Y-83959000D01*
X143509560Y-85459000D01*
X143558843Y-85706765D01*
X143699191Y-85916809D01*
X143784298Y-85973676D01*
X143618673Y-86139302D01*
X143522000Y-86372691D01*
X143522000Y-86437560D01*
X141685000Y-86437560D01*
X141437235Y-86486843D01*
X141227191Y-86627191D01*
X141086843Y-86837235D01*
X141037560Y-87085000D01*
X141037560Y-88085000D01*
X141050097Y-88148027D01*
X140812071Y-88307071D01*
X140644096Y-88558463D01*
X140585111Y-88855000D01*
X140600000Y-88929852D01*
X140600000Y-89074080D01*
X140051237Y-89622800D01*
X139885126Y-89622800D01*
X139504720Y-89780369D01*
X139213569Y-90071520D01*
X139056000Y-90451926D01*
X139056000Y-90863674D01*
X139213569Y-91244080D01*
X139335360Y-91365871D01*
X133070539Y-97630263D01*
X133007071Y-97672671D01*
X132912006Y-97814946D01*
X132839107Y-97924039D01*
X132839105Y-97924050D01*
X132839096Y-97924063D01*
X132832495Y-97957250D01*
X131945000Y-98844967D01*
X131945000Y-98643691D01*
X131848327Y-98410302D01*
X131669699Y-98231673D01*
X131572000Y-98191205D01*
X131572000Y-85090000D01*
X131562333Y-85041399D01*
X131534803Y-85000197D01*
X131493601Y-84972667D01*
X131445000Y-84963000D01*
X125240000Y-84963000D01*
X125240000Y-83542119D01*
X131318000Y-83542119D01*
X131318000Y-84097881D01*
X131530680Y-84611337D01*
X131923663Y-85004320D01*
X132437119Y-85217000D01*
X132992881Y-85217000D01*
X133506337Y-85004320D01*
X133899320Y-84611337D01*
X134112000Y-84097881D01*
X134112000Y-83542119D01*
X135763000Y-83542119D01*
X135763000Y-84097881D01*
X135975680Y-84611337D01*
X136368663Y-85004320D01*
X136882119Y-85217000D01*
X137437881Y-85217000D01*
X137951337Y-85004320D01*
X138344320Y-84611337D01*
X138557000Y-84097881D01*
X138557000Y-83542119D01*
X138344320Y-83028663D01*
X137951337Y-82635680D01*
X137437881Y-82423000D01*
X136882119Y-82423000D01*
X136368663Y-82635680D01*
X135975680Y-83028663D01*
X135763000Y-83542119D01*
X134112000Y-83542119D01*
X133899320Y-83028663D01*
X133506337Y-82635680D01*
X132992881Y-82423000D01*
X132437119Y-82423000D01*
X131923663Y-82635680D01*
X131530680Y-83028663D01*
X131318000Y-83542119D01*
X125240000Y-83542119D01*
X125240000Y-80202771D01*
X125311120Y-79389866D01*
X125513982Y-78632775D01*
X125845227Y-77922416D01*
X126294801Y-77280358D01*
X126849025Y-76726135D01*
X127491080Y-76276563D01*
X128201438Y-75945318D01*
X128958530Y-75742456D01*
X129610257Y-75685437D01*
X129310000Y-76410322D01*
G36*
X145034000Y-87122000D02*
X145054000Y-87122000D01*
X145054000Y-87376000D01*
X145034000Y-87376000D01*
X145034000Y-88475250D01*
X145077750Y-88519000D01*
X145034000Y-88562750D01*
X145034000Y-89662000D01*
X145054000Y-89662000D01*
X145054000Y-89916000D01*
X145034000Y-89916000D01*
X145034000Y-91015250D01*
X145192750Y-91174000D01*
X145222300Y-91174000D01*
X145222300Y-93203798D01*
X144872928Y-93553171D01*
X144809472Y-93595571D01*
X144641497Y-93846963D01*
X144597823Y-94066529D01*
X144582512Y-94143500D01*
X144597401Y-94218352D01*
X144597400Y-97944527D01*
X144558157Y-97747235D01*
X144417809Y-97537191D01*
X144207765Y-97396843D01*
X144171642Y-97389658D01*
X144283157Y-97222765D01*
X144332440Y-96975000D01*
X144332440Y-95975000D01*
X144309095Y-95857636D01*
X144320000Y-95831309D01*
X144320000Y-95490750D01*
X144161250Y-95332000D01*
X143707322Y-95332000D01*
X143685000Y-95327560D01*
X142538000Y-95327560D01*
X142538000Y-95082440D01*
X143685000Y-95082440D01*
X143707322Y-95078000D01*
X144161250Y-95078000D01*
X144320000Y-94919250D01*
X144320000Y-94578691D01*
X144309095Y-94552364D01*
X144332440Y-94435000D01*
X144332440Y-93435000D01*
X144305587Y-93300000D01*
X144332440Y-93165000D01*
X144332440Y-92165000D01*
X144305587Y-92030000D01*
X144332440Y-91895000D01*
X144332440Y-91174000D01*
X144621250Y-91174000D01*
X144780000Y-91015250D01*
X144780000Y-89916000D01*
X144760000Y-89916000D01*
X144760000Y-89662000D01*
X144780000Y-89662000D01*
X144780000Y-88562750D01*
X144736250Y-88519000D01*
X144780000Y-88475250D01*
X144780000Y-87376000D01*
X144760000Y-87376000D01*
X144760000Y-87122000D01*
X144780000Y-87122000D01*
X144780000Y-87102000D01*
X145034000Y-87102000D01*
X145034000Y-87122000D01*
X145034000Y-87122000D01*
G37*
X145034000Y-87122000D02*
X145054000Y-87122000D01*
X145054000Y-87376000D01*
X145034000Y-87376000D01*
X145034000Y-88475250D01*
X145077750Y-88519000D01*
X145034000Y-88562750D01*
X145034000Y-89662000D01*
X145054000Y-89662000D01*
X145054000Y-89916000D01*
X145034000Y-89916000D01*
X145034000Y-91015250D01*
X145192750Y-91174000D01*
X145222300Y-91174000D01*
X145222300Y-93203798D01*
X144872928Y-93553171D01*
X144809472Y-93595571D01*
X144641497Y-93846963D01*
X144597823Y-94066529D01*
X144582512Y-94143500D01*
X144597401Y-94218352D01*
X144597400Y-97944527D01*
X144558157Y-97747235D01*
X144417809Y-97537191D01*
X144207765Y-97396843D01*
X144171642Y-97389658D01*
X144283157Y-97222765D01*
X144332440Y-96975000D01*
X144332440Y-95975000D01*
X144309095Y-95857636D01*
X144320000Y-95831309D01*
X144320000Y-95490750D01*
X144161250Y-95332000D01*
X143707322Y-95332000D01*
X143685000Y-95327560D01*
X142538000Y-95327560D01*
X142538000Y-95082440D01*
X143685000Y-95082440D01*
X143707322Y-95078000D01*
X144161250Y-95078000D01*
X144320000Y-94919250D01*
X144320000Y-94578691D01*
X144309095Y-94552364D01*
X144332440Y-94435000D01*
X144332440Y-93435000D01*
X144305587Y-93300000D01*
X144332440Y-93165000D01*
X144332440Y-92165000D01*
X144305587Y-92030000D01*
X144332440Y-91895000D01*
X144332440Y-91174000D01*
X144621250Y-91174000D01*
X144780000Y-91015250D01*
X144780000Y-89916000D01*
X144760000Y-89916000D01*
X144760000Y-89662000D01*
X144780000Y-89662000D01*
X144780000Y-88562750D01*
X144736250Y-88519000D01*
X144780000Y-88475250D01*
X144780000Y-87376000D01*
X144760000Y-87376000D01*
X144760000Y-87122000D01*
X144780000Y-87122000D01*
X144780000Y-87102000D01*
X145034000Y-87102000D01*
X145034000Y-87122000D01*
G04 #@! TD*
M02*
