G04 #@! TF.GenerationSoftware,KiCad,Pcbnew,(5.0.1)-4*
G04 #@! TF.CreationDate,2019-04-29T20:25:54+02:00*
G04 #@! TF.ProjectId,MyWallSwitch,4D7957616C6C5377697463682E6B6963,2*
G04 #@! TF.SameCoordinates,Original*
G04 #@! TF.FileFunction,Copper,L2,Bot,Signal*
G04 #@! TF.FilePolarity,Positive*
%FSLAX46Y46*%
G04 Gerber Fmt 4.6, Leading zero omitted, Abs format (unit mm)*
G04 Created by KiCad (PCBNEW (5.0.1)-4) date 29.04.2019 20:25:54*
%MOMM*%
%LPD*%
G01*
G04 APERTURE LIST*
G04 #@! TA.AperFunction,ComponentPad*
%ADD10C,3.000000*%
G04 #@! TD*
G04 #@! TA.AperFunction,ComponentPad*
%ADD11R,3.000000X3.000000*%
G04 #@! TD*
G04 #@! TA.AperFunction,ComponentPad*
%ADD12C,2.350000*%
G04 #@! TD*
G04 #@! TA.AperFunction,ComponentPad*
%ADD13O,1.700000X1.700000*%
G04 #@! TD*
G04 #@! TA.AperFunction,ComponentPad*
%ADD14R,1.700000X1.700000*%
G04 #@! TD*
G04 #@! TA.AperFunction,ComponentPad*
%ADD15C,1.524000*%
G04 #@! TD*
G04 #@! TA.AperFunction,ComponentPad*
%ADD16C,1.600000*%
G04 #@! TD*
G04 #@! TA.AperFunction,ViaPad*
%ADD17C,0.800000*%
G04 #@! TD*
G04 #@! TA.AperFunction,Conductor*
%ADD18C,0.250000*%
G04 #@! TD*
G04 #@! TA.AperFunction,Conductor*
%ADD19C,0.500000*%
G04 #@! TD*
G04 #@! TA.AperFunction,Conductor*
%ADD20C,0.254000*%
G04 #@! TD*
G04 APERTURE END LIST*
D10*
G04 #@! TO.P,J1,4*
G04 #@! TO.N,L_OUT*
X131445000Y-76835000D03*
D11*
G04 #@! TO.P,J1,1*
G04 #@! TO.N,Net-(F1-Pad1)*
X146685000Y-76835000D03*
D10*
G04 #@! TO.P,J1,3*
G04 #@! TO.N,Net-(J1-Pad2)*
X136525000Y-76835000D03*
G04 #@! TO.P,J1,2*
X141605000Y-76835000D03*
G04 #@! TD*
D12*
G04 #@! TO.P,F1,2*
G04 #@! TO.N,L_IN*
X149860000Y-98980000D03*
X149860000Y-93900000D03*
G04 #@! TO.P,F1,1*
G04 #@! TO.N,Net-(F1-Pad1)*
X149860000Y-109220000D03*
X149860000Y-114300000D03*
G04 #@! TO.P,F1,2*
G04 #@! TO.N,L_IN*
X152400000Y-96440000D03*
X147320000Y-96440000D03*
G04 #@! TO.P,F1,1*
G04 #@! TO.N,Net-(F1-Pad1)*
X152400000Y-111760000D03*
X147320000Y-111760000D03*
G04 #@! TD*
D13*
G04 #@! TO.P,J2,6*
G04 #@! TO.N,GND*
X146050000Y-118110000D03*
G04 #@! TO.P,J2,5*
X143510000Y-118110000D03*
G04 #@! TO.P,J2,4*
G04 #@! TO.N,VCC*
X140970000Y-118110000D03*
G04 #@! TO.P,J2,3*
G04 #@! TO.N,Net-(J2-Pad3)*
X138430000Y-118110000D03*
G04 #@! TO.P,J2,2*
G04 #@! TO.N,Net-(J2-Pad2)*
X135890000Y-118110000D03*
D14*
G04 #@! TO.P,J2,1*
G04 #@! TO.N,Net-(C4-Pad1)*
X133350000Y-118110000D03*
G04 #@! TD*
D15*
G04 #@! TO.P,U1,1*
G04 #@! TO.N,Net-(F1-Pad1)*
X132715000Y-83820000D03*
G04 #@! TO.P,U1,2*
G04 #@! TO.N,Net-(J1-Pad2)*
X137160000Y-83820000D03*
G04 #@! TO.P,U1,3*
G04 #@! TO.N,GND*
X127000000Y-113030000D03*
G04 #@! TO.P,U1,4*
G04 #@! TO.N,VCC*
X142240000Y-113030000D03*
G04 #@! TD*
D16*
G04 #@! TO.P,RV1,2*
G04 #@! TO.N,Net-(J1-Pad2)*
X152955000Y-105670000D03*
G04 #@! TO.P,RV1,1*
G04 #@! TO.N,Net-(F1-Pad1)*
X147955000Y-102870000D03*
G04 #@! TD*
D17*
G04 #@! TO.N,Net-(C1-Pad1)*
X142363000Y-104766000D03*
X134346000Y-108058000D03*
G04 #@! TO.N,GND*
X127620000Y-107679000D03*
G04 #@! TO.N,Net-(C3-Pad2)*
X129060000Y-111475000D03*
X133823000Y-101870000D03*
X139960000Y-114113000D03*
G04 #@! TO.N,Net-(C4-Pad2)*
X129540000Y-106785000D03*
X134935000Y-115216000D03*
G04 #@! TO.N,Net-(J1-Pad2)*
X143822000Y-79052500D03*
X150428000Y-95872200D03*
G04 #@! TO.N,Net-(J2-Pad2)*
X138980000Y-115162000D03*
G04 #@! TO.N,Net-(J3-Pad3)*
X141060000Y-91936300D03*
X132790000Y-104125000D03*
G04 #@! TO.N,Net-(J3-Pad1)*
X140091000Y-90657800D03*
X132346000Y-102504000D03*
G04 #@! TO.N,Net-(U2-Pad8)*
X130889000Y-112052000D03*
X138975000Y-106562000D03*
G04 #@! TO.N,Net-(U2-Pad7)*
X131754000Y-113302000D03*
X139996000Y-106623000D03*
G04 #@! TD*
D18*
G04 #@! TO.N,Net-(C1-Pad1)*
X134346000Y-108058000D02*
X137638000Y-104766000D01*
X137638000Y-104766000D02*
X142363000Y-104766000D01*
G04 #@! TO.N,GND*
X143510000Y-118110000D02*
X146050000Y-118110000D01*
X127000000Y-113030000D02*
X130905000Y-116935000D01*
X130905000Y-116935000D02*
X141527000Y-116935000D01*
X141527000Y-116935000D02*
X142335000Y-117743000D01*
X142335000Y-117743000D02*
X142335000Y-118110000D01*
X142335000Y-118110000D02*
X143510000Y-118110000D01*
X127000000Y-113030000D02*
X127620000Y-112410000D01*
X127620000Y-112410000D02*
X127620000Y-107679000D01*
G04 #@! TO.N,Net-(C3-Pad2)*
X129060000Y-111475000D02*
X131547000Y-108989000D01*
X131547000Y-108989000D02*
X131547000Y-108788000D01*
X131547000Y-108788000D02*
X131532000Y-108773000D01*
X131532000Y-108773000D02*
X131532000Y-104344000D01*
X131532000Y-104344000D02*
X133823000Y-102052000D01*
X133823000Y-102052000D02*
X133823000Y-101870000D01*
X129060000Y-111475000D02*
X129060000Y-111697000D01*
X129060000Y-111697000D02*
X131476000Y-114113000D01*
X131476000Y-114113000D02*
X139960000Y-114113000D01*
G04 #@! TO.N,Net-(C4-Pad2)*
X129540000Y-106785000D02*
X128335000Y-107990000D01*
X128335000Y-107990000D02*
X128335000Y-111827000D01*
X128335000Y-111827000D02*
X131724000Y-115216000D01*
X131724000Y-115216000D02*
X134935000Y-115216000D01*
D19*
G04 #@! TO.N,Net-(F1-Pad1)*
X148590000Y-113030000D02*
X147320000Y-111760000D01*
X149860000Y-114300000D02*
X148590000Y-113030000D01*
X151130000Y-110490000D02*
X149860000Y-109220000D01*
X152400000Y-111760000D02*
X151130000Y-110490000D01*
X151130000Y-110490000D02*
X148590000Y-113030000D01*
X141215000Y-80254900D02*
X138658000Y-82811700D01*
X138658000Y-82811700D02*
X138658000Y-85158900D01*
X138658000Y-85158900D02*
X134054000Y-85158900D01*
X134054000Y-85158900D02*
X132715000Y-83820000D01*
X146685000Y-76835000D02*
X144635000Y-76835000D01*
X144635000Y-76835000D02*
X141215000Y-80254900D01*
X141215000Y-80254900D02*
X145660000Y-80254900D01*
X145660000Y-80254900D02*
X147955000Y-82550000D01*
X147955000Y-82550000D02*
X147955000Y-92075000D01*
X147955000Y-92075000D02*
X145415000Y-94615000D01*
X145415000Y-94615000D02*
X145415000Y-109855000D01*
X145415000Y-109855000D02*
X147320000Y-111760000D01*
G04 #@! TO.N,L_IN*
X152400000Y-96440000D02*
X149860000Y-98980000D01*
X147320000Y-96440000D02*
X149860000Y-98980000D01*
G04 #@! TO.N,Net-(J1-Pad2)*
X137160000Y-76835000D02*
X136525000Y-76835000D01*
X141605000Y-76835000D02*
X137160000Y-76835000D01*
X150428000Y-95872200D02*
X151652000Y-94648400D01*
X151652000Y-94648400D02*
X151652000Y-84189400D01*
X151652000Y-84189400D02*
X146515000Y-79052500D01*
X146515000Y-79052500D02*
X143822000Y-79052500D01*
X137160000Y-76835000D02*
X137160000Y-83820000D01*
D18*
G04 #@! TO.N,Net-(J2-Pad2)*
X135890000Y-118110000D02*
X137065000Y-118110000D01*
X137065000Y-118110000D02*
X137065000Y-118477000D01*
X137065000Y-118477000D02*
X137873000Y-119285000D01*
X137873000Y-119285000D02*
X146554000Y-119285000D01*
X146554000Y-119285000D02*
X147242000Y-118597000D01*
X147242000Y-118597000D02*
X147242000Y-117589000D01*
X147242000Y-117589000D02*
X144814000Y-115162000D01*
X144814000Y-115162000D02*
X138980000Y-115162000D01*
G04 #@! TO.N,Net-(J3-Pad3)*
X141060000Y-91936300D02*
X141060000Y-95855100D01*
X141060000Y-95855100D02*
X132790000Y-104125000D01*
G04 #@! TO.N,Net-(J3-Pad1)*
X132346000Y-102504000D02*
X132346000Y-98403000D01*
X132346000Y-98403000D02*
X140091000Y-90657800D01*
G04 #@! TO.N,Net-(U2-Pad8)*
X138975000Y-106562000D02*
X133486000Y-112052000D01*
X133486000Y-112052000D02*
X130889000Y-112052000D01*
G04 #@! TO.N,Net-(U2-Pad7)*
X139996000Y-106623000D02*
X133316000Y-113302000D01*
X133316000Y-113302000D02*
X131754000Y-113302000D01*
G04 #@! TD*
D20*
G04 #@! TO.N,GND*
G36*
X131586001Y-98477858D02*
X131586000Y-101800289D01*
X131468569Y-101917720D01*
X131311000Y-102298126D01*
X131311000Y-102709874D01*
X131468569Y-103090280D01*
X131589614Y-103211325D01*
X131047458Y-103753718D01*
X130984072Y-103796071D01*
X130941626Y-103859596D01*
X130941565Y-103859657D01*
X130898994Y-103923399D01*
X130816097Y-104047463D01*
X130816080Y-104047547D01*
X130816032Y-104047619D01*
X130786430Y-104196611D01*
X130772001Y-104269148D01*
X130772001Y-104269231D01*
X130757112Y-104344169D01*
X130772001Y-104418936D01*
X130772000Y-108689102D01*
X129095000Y-110365428D01*
X129095000Y-108304801D01*
X129579802Y-107820000D01*
X129745874Y-107820000D01*
X130126280Y-107662431D01*
X130417431Y-107371280D01*
X130575000Y-106990874D01*
X130575000Y-106579126D01*
X130417431Y-106198720D01*
X130126280Y-105907569D01*
X129745874Y-105750000D01*
X129334126Y-105750000D01*
X128953720Y-105907569D01*
X128662569Y-106198720D01*
X128505000Y-106579126D01*
X128505000Y-106745198D01*
X127850530Y-107399669D01*
X127787071Y-107442071D01*
X127619096Y-107693464D01*
X127575000Y-107915149D01*
X127575000Y-107915153D01*
X127560112Y-107990000D01*
X127575000Y-108064847D01*
X127575001Y-111751897D01*
X127207698Y-111620856D01*
X126652632Y-111648638D01*
X126268857Y-111807603D01*
X126199392Y-112049787D01*
X127000000Y-112850395D01*
X127014143Y-112836253D01*
X127193748Y-113015858D01*
X127179605Y-113030000D01*
X127980213Y-113830608D01*
X128222397Y-113761143D01*
X128409144Y-113237698D01*
X128395353Y-112962154D01*
X131133671Y-115700473D01*
X131176071Y-115763929D01*
X131239527Y-115806329D01*
X131427462Y-115931904D01*
X131475605Y-115941480D01*
X131649148Y-115976000D01*
X131649152Y-115976000D01*
X131724000Y-115990888D01*
X131798848Y-115976000D01*
X134231289Y-115976000D01*
X134348720Y-116093431D01*
X134729126Y-116251000D01*
X135140874Y-116251000D01*
X135521280Y-116093431D01*
X135812431Y-115802280D01*
X135970000Y-115421874D01*
X135970000Y-115010126D01*
X135913201Y-114873000D01*
X137979432Y-114873000D01*
X137945000Y-114956126D01*
X137945000Y-115367874D01*
X138102569Y-115748280D01*
X138393720Y-116039431D01*
X138774126Y-116197000D01*
X139185874Y-116197000D01*
X139566280Y-116039431D01*
X139683711Y-115922000D01*
X144499290Y-115922000D01*
X145377074Y-116799422D01*
X145283076Y-116838355D01*
X144854817Y-117228642D01*
X144780000Y-117387954D01*
X144705183Y-117228642D01*
X144276924Y-116838355D01*
X143866890Y-116668524D01*
X143637000Y-116789845D01*
X143637000Y-117983000D01*
X145923000Y-117983000D01*
X145923000Y-117963000D01*
X146177000Y-117963000D01*
X146177000Y-117983000D01*
X146197000Y-117983000D01*
X146197000Y-118237000D01*
X146177000Y-118237000D01*
X146177000Y-118257000D01*
X145923000Y-118257000D01*
X145923000Y-118237000D01*
X143637000Y-118237000D01*
X143637000Y-118257000D01*
X143383000Y-118257000D01*
X143383000Y-118237000D01*
X143363000Y-118237000D01*
X143363000Y-117983000D01*
X143383000Y-117983000D01*
X143383000Y-116789845D01*
X143153110Y-116668524D01*
X142743076Y-116838355D01*
X142314817Y-117228642D01*
X142253843Y-117358478D01*
X142040625Y-117039375D01*
X141549418Y-116711161D01*
X141116256Y-116625000D01*
X140823744Y-116625000D01*
X140390582Y-116711161D01*
X139899375Y-117039375D01*
X139700000Y-117337761D01*
X139500625Y-117039375D01*
X139009418Y-116711161D01*
X138576256Y-116625000D01*
X138283744Y-116625000D01*
X137850582Y-116711161D01*
X137359375Y-117039375D01*
X137160000Y-117337761D01*
X136960625Y-117039375D01*
X136469418Y-116711161D01*
X136036256Y-116625000D01*
X135743744Y-116625000D01*
X135310582Y-116711161D01*
X134819375Y-117039375D01*
X134807184Y-117057619D01*
X134798157Y-117012235D01*
X134657809Y-116802191D01*
X134447765Y-116661843D01*
X134200000Y-116612560D01*
X132500000Y-116612560D01*
X132252235Y-116661843D01*
X132042191Y-116802191D01*
X131901843Y-117012235D01*
X131852560Y-117260000D01*
X131852560Y-118960000D01*
X131860782Y-119001336D01*
X129350828Y-119001336D01*
X128574686Y-118930019D01*
X127857122Y-118727645D01*
X127188445Y-118397890D01*
X126591064Y-117951804D01*
X126084979Y-117404325D01*
X125687136Y-116773783D01*
X125410865Y-116081303D01*
X125262580Y-115335824D01*
X125240000Y-114904967D01*
X125240000Y-114010213D01*
X126199392Y-114010213D01*
X126268857Y-114252397D01*
X126792302Y-114439144D01*
X127347368Y-114411362D01*
X127731143Y-114252397D01*
X127800608Y-114010213D01*
X127000000Y-113209605D01*
X126199392Y-114010213D01*
X125240000Y-114010213D01*
X125240000Y-112822302D01*
X125590856Y-112822302D01*
X125618638Y-113377368D01*
X125777603Y-113761143D01*
X126019787Y-113830608D01*
X126820395Y-113030000D01*
X126019787Y-112229392D01*
X125777603Y-112298857D01*
X125590856Y-112822302D01*
X125240000Y-112822302D01*
X125240000Y-98552000D01*
X131445000Y-98552000D01*
X131493601Y-98542333D01*
X131534803Y-98514803D01*
X131562333Y-98473601D01*
X131572000Y-98425000D01*
X131572000Y-98407474D01*
X131586001Y-98477858D01*
X131586001Y-98477858D01*
G37*
X131586001Y-98477858D02*
X131586000Y-101800289D01*
X131468569Y-101917720D01*
X131311000Y-102298126D01*
X131311000Y-102709874D01*
X131468569Y-103090280D01*
X131589614Y-103211325D01*
X131047458Y-103753718D01*
X130984072Y-103796071D01*
X130941626Y-103859596D01*
X130941565Y-103859657D01*
X130898994Y-103923399D01*
X130816097Y-104047463D01*
X130816080Y-104047547D01*
X130816032Y-104047619D01*
X130786430Y-104196611D01*
X130772001Y-104269148D01*
X130772001Y-104269231D01*
X130757112Y-104344169D01*
X130772001Y-104418936D01*
X130772000Y-108689102D01*
X129095000Y-110365428D01*
X129095000Y-108304801D01*
X129579802Y-107820000D01*
X129745874Y-107820000D01*
X130126280Y-107662431D01*
X130417431Y-107371280D01*
X130575000Y-106990874D01*
X130575000Y-106579126D01*
X130417431Y-106198720D01*
X130126280Y-105907569D01*
X129745874Y-105750000D01*
X129334126Y-105750000D01*
X128953720Y-105907569D01*
X128662569Y-106198720D01*
X128505000Y-106579126D01*
X128505000Y-106745198D01*
X127850530Y-107399669D01*
X127787071Y-107442071D01*
X127619096Y-107693464D01*
X127575000Y-107915149D01*
X127575000Y-107915153D01*
X127560112Y-107990000D01*
X127575000Y-108064847D01*
X127575001Y-111751897D01*
X127207698Y-111620856D01*
X126652632Y-111648638D01*
X126268857Y-111807603D01*
X126199392Y-112049787D01*
X127000000Y-112850395D01*
X127014143Y-112836253D01*
X127193748Y-113015858D01*
X127179605Y-113030000D01*
X127980213Y-113830608D01*
X128222397Y-113761143D01*
X128409144Y-113237698D01*
X128395353Y-112962154D01*
X131133671Y-115700473D01*
X131176071Y-115763929D01*
X131239527Y-115806329D01*
X131427462Y-115931904D01*
X131475605Y-115941480D01*
X131649148Y-115976000D01*
X131649152Y-115976000D01*
X131724000Y-115990888D01*
X131798848Y-115976000D01*
X134231289Y-115976000D01*
X134348720Y-116093431D01*
X134729126Y-116251000D01*
X135140874Y-116251000D01*
X135521280Y-116093431D01*
X135812431Y-115802280D01*
X135970000Y-115421874D01*
X135970000Y-115010126D01*
X135913201Y-114873000D01*
X137979432Y-114873000D01*
X137945000Y-114956126D01*
X137945000Y-115367874D01*
X138102569Y-115748280D01*
X138393720Y-116039431D01*
X138774126Y-116197000D01*
X139185874Y-116197000D01*
X139566280Y-116039431D01*
X139683711Y-115922000D01*
X144499290Y-115922000D01*
X145377074Y-116799422D01*
X145283076Y-116838355D01*
X144854817Y-117228642D01*
X144780000Y-117387954D01*
X144705183Y-117228642D01*
X144276924Y-116838355D01*
X143866890Y-116668524D01*
X143637000Y-116789845D01*
X143637000Y-117983000D01*
X145923000Y-117983000D01*
X145923000Y-117963000D01*
X146177000Y-117963000D01*
X146177000Y-117983000D01*
X146197000Y-117983000D01*
X146197000Y-118237000D01*
X146177000Y-118237000D01*
X146177000Y-118257000D01*
X145923000Y-118257000D01*
X145923000Y-118237000D01*
X143637000Y-118237000D01*
X143637000Y-118257000D01*
X143383000Y-118257000D01*
X143383000Y-118237000D01*
X143363000Y-118237000D01*
X143363000Y-117983000D01*
X143383000Y-117983000D01*
X143383000Y-116789845D01*
X143153110Y-116668524D01*
X142743076Y-116838355D01*
X142314817Y-117228642D01*
X142253843Y-117358478D01*
X142040625Y-117039375D01*
X141549418Y-116711161D01*
X141116256Y-116625000D01*
X140823744Y-116625000D01*
X140390582Y-116711161D01*
X139899375Y-117039375D01*
X139700000Y-117337761D01*
X139500625Y-117039375D01*
X139009418Y-116711161D01*
X138576256Y-116625000D01*
X138283744Y-116625000D01*
X137850582Y-116711161D01*
X137359375Y-117039375D01*
X137160000Y-117337761D01*
X136960625Y-117039375D01*
X136469418Y-116711161D01*
X136036256Y-116625000D01*
X135743744Y-116625000D01*
X135310582Y-116711161D01*
X134819375Y-117039375D01*
X134807184Y-117057619D01*
X134798157Y-117012235D01*
X134657809Y-116802191D01*
X134447765Y-116661843D01*
X134200000Y-116612560D01*
X132500000Y-116612560D01*
X132252235Y-116661843D01*
X132042191Y-116802191D01*
X131901843Y-117012235D01*
X131852560Y-117260000D01*
X131852560Y-118960000D01*
X131860782Y-119001336D01*
X129350828Y-119001336D01*
X128574686Y-118930019D01*
X127857122Y-118727645D01*
X127188445Y-118397890D01*
X126591064Y-117951804D01*
X126084979Y-117404325D01*
X125687136Y-116773783D01*
X125410865Y-116081303D01*
X125262580Y-115335824D01*
X125240000Y-114904967D01*
X125240000Y-114010213D01*
X126199392Y-114010213D01*
X126268857Y-114252397D01*
X126792302Y-114439144D01*
X127347368Y-114411362D01*
X127731143Y-114252397D01*
X127800608Y-114010213D01*
X127000000Y-113209605D01*
X126199392Y-114010213D01*
X125240000Y-114010213D01*
X125240000Y-112822302D01*
X125590856Y-112822302D01*
X125618638Y-113377368D01*
X125777603Y-113761143D01*
X126019787Y-113830608D01*
X126820395Y-113030000D01*
X126019787Y-112229392D01*
X125777603Y-112298857D01*
X125590856Y-112822302D01*
X125240000Y-112822302D01*
X125240000Y-98552000D01*
X131445000Y-98552000D01*
X131493601Y-98542333D01*
X131534803Y-98514803D01*
X131562333Y-98473601D01*
X131572000Y-98425000D01*
X131572000Y-98407474D01*
X131586001Y-98477858D01*
G04 #@! TD*
M02*
