M48
METRIC,TZ
T1C0.400
T2C0.600
T3C0.810
T4C1.000
T5C1.350
T6C1.520
%
G90
G05
T1
X127620Y-107679
X129060Y-111475
X129540Y-106785
X130889Y-112052
X131754Y-113302
X132346Y-102504
X132790Y-104125
X133823Y-101870
X134346Y-108058
X134935Y-115216
X138975Y-106562
X138980Y-115162
X139960Y-114113
X139996Y-106623
X140091Y-90658
X141060Y-91936
X142363Y-104766
X143822Y-79053
X150428Y-95872
T2
X147955Y-102870
X152955Y-105670
T3
X127000Y-113030
X132715Y-83820
X137160Y-83820
X142240Y-113030
T4
X133350Y-118110
X135890Y-118110
X138430Y-118110
X140970Y-118110
X143510Y-118110
X146050Y-118110
T5
X147320Y-96440
X147320Y-111760
X149860Y-93900
X149860Y-98980
X149860Y-109220
X149860Y-114300
X152400Y-96440
X152400Y-111760
T6
X131445Y-76835
X136525Y-76835
X141605Y-76835
X146685Y-76835
T0
M30
